<?xml version="1.0" encoding="UTF-8" standalone="no"?>
<!-- Created with Inkscape (http://www.inkscape.org/) -->

<svg
   xmlns:dc="http://purl.org/dc/elements/1.1/"
   xmlns:cc="http://creativecommons.org/ns#"
   xmlns:rdf="http://www.w3.org/1999/02/22-rdf-syntax-ns#"
   xmlns:svg="http://www.w3.org/2000/svg"
   xmlns="http://www.w3.org/2000/svg"
   xmlns:sodipodi="http://sodipodi.sourceforge.net/DTD/sodipodi-0.dtd"
   xmlns:inkscape="http://www.inkscape.org/namespaces/inkscape"
   width="575"
   height="670"
   id="svg2"
   version="1.1"
   inkscape:version="0.48.4 r9939"
   sodipodi:docname="icon.svg"
   inkscape:export-filename="C:\Projects-Personal\AB-Theme-Game\asset\icon\icon.png"
   inkscape:export-xdpi="2.6865671"
   inkscape:export-ydpi="2.6865671">
  <defs
     id="defs4" />
  <sodipodi:namedview
     id="base"
     pagecolor="#ffffff"
     bordercolor="#666666"
     borderopacity="1.0"
     inkscape:pageopacity="0.0"
     inkscape:pageshadow="2"
     inkscape:zoom="0.7"
     inkscape:cx="432.11381"
     inkscape:cy="329.54948"
     inkscape:document-units="px"
     inkscape:current-layer="layer1"
     showgrid="false"
     inkscape:window-width="1038"
     inkscape:window-height="777"
     inkscape:window-x="19"
     inkscape:window-y="166"
     inkscape:window-maximized="0" />
  <metadata
     id="metadata7">
    <rdf:RDF>
      <cc:Work
         rdf:about="">
        <dc:format>image/svg+xml</dc:format>
        <dc:type
           rdf:resource="http://purl.org/dc/dcmitype/StillImage" />
        <dc:title></dc:title>
      </cc:Work>
    </rdf:RDF>
  </metadata>
  <g
     inkscape:label="Layer 1"
     inkscape:groupmode="layer"
     id="layer1"
     transform="translate(0,-382.36218)">
    <path
       style="fill:#ac9393;fill-opacity:1"
       d="m 280.41313,532.21492 c -4.37095,5.48686 -9.07794,11.77396 -14.34069,19.19903 -3.43753,4.47674 -24.22118,30.73841 -48.4333,61.29327 5.29585,3.65887 65.12358,45.0713 95.21688,69.56746 30.695,24.98595 85.50536,77.24126 88.21569,79.8286 l 49.70046,-61.87394 c 0.23902,-0.24957 0.48012,-0.4951 0.71859,-0.74508 13.19348,-13.8303 25.6493,-29.57862 37.19782,-46.45848 l 0.45022,-0.5605 c 1.64889,-2.05276 3.08544,-4.23446 4.29777,-6.49684 15.59386,-23.72199 29.42597,-49.41918 41.06634,-75.14921 -19.38761,-18.37518 -51.27468,-48.10592 -72.09694,-65.05539 -21.77145,-17.72211 -59.63761,-44.3973 -81.14583,-59.32261 -22.79565,14.48861 -45.05022,30.87378 -65.04409,48.57804 -3.60919,2.37401 -6.87436,5.31837 -9.67749,8.80809 l -0.11745,0.14622 c -8.44254,7.97282 -16.39186,16.17028 -26.00798,28.24134 z m 100.70744,-1.81429 c 13.27949,-16.53213 37.38641,-19.10014 53.80897,-5.73207 16.42256,13.36809 18.94935,37.61614 5.66986,54.14827 -13.27948,16.53212 -37.34262,19.09547 -53.76518,5.7274 -16.42256,-13.36809 -18.99314,-37.61148 -5.71365,-54.1436 z"
       id="path3048"
       inkscape:connector-curvature="0" />
    <path
       style="fill:#ac9393;fill-opacity:1"
       d="m 204.13148,629.72279 c -19.00024,23.96628 -23.89855,30.12833 -41.41881,52.21176 4.28922,2.92653 65.49644,44.77025 95.87362,69.4975 30.07723,24.48308 82.51642,74.96668 87.20615,79.49046 l 41.65521,-51.85811 c -2.71034,-2.58734 -57.5207,-54.84266 -88.21571,-79.82861 -30.01703,-24.43409 -89.53533,-65.66766 -95.10046,-69.513 z"
       id="path3046"
       inkscape:connector-curvature="0"
       sodipodi:nodetypes="ccsccsc" />
    <path
       style="fill:#ac9393;fill-opacity:1"
       d="m 153.18398,708.8964 c -15.40834,19.41863 -42.5776,53.64994 -42.5776,53.64994 -15.881195,19.7711 -9.58373,51.2197 14.12934,70.52231 l 82.77711,67.38116 c 23.71306,19.30262 55.6017,18.93778 71.4829,-0.83332 l 42.90819,-53.41799 c -4.32476,-4.17172 -52.68286,-50.72642 -80.41932,-73.30411 -27.92707,-22.73285 -84.02971,-61.08352 -88.30062,-63.99799 z"
       id="path3044"
       inkscape:connector-curvature="0" />
    <path
       style="fill:#ac9393;fill-opacity:1"
       d="m 403.02804,433.2477 c 22.06677,15.40925 54.55886,38.52701 73.98074,54.33656 19.10654,15.55286 47.65577,41.97952 67.22965,60.44852 29.45069,-73.04414 40.00395,-141.45602 21.72376,-159.12798 -18.70529,-18.08291 -90.79684,2.80688 -162.93415,44.3429 z"
       id="path3042"
       inkscape:connector-curvature="0" />
    <path
       style="fill:#ac9393;fill-opacity:1"
       d="M 43.091686,634.46923 C 70.723617,610.095 204.5514,630.10459 204.5514,630.10459 l -41.33032,52.13435 c -16.41942,5.07468 -26.02289,28.50308 -41.45262,38.16128 C 106.33874,730.05842 24.486836,709.31882 0,700.72752 7.4073106,679.01416 17.76333,650.12465 43.091655,634.46921 z"
       id="rect3017"
       inkscape:connector-curvature="0"
       sodipodi:nodetypes="ccczccc" />
    <path
       sodipodi:nodetypes="ccczcc"
       inkscape:connector-curvature="0"
       id="path3020"
       d="m 418.40486,935.88739 c 17.89316,-32.30166 -31.2559,-157.32814 -31.2559,-157.32814 l -41.61902,51.7365 c -1.49287,17.225 -20.91048,28.91905 -27.06279,46.12913 -6.15231,17.21008 31.12486,93.44242 44.59522,115.74854 19.54141,-11.8361 45.43639,-28.0768 55.34249,-56.28603 z"
       style="fill:#ac9393;fill-opacity:1" />
    <path
       style="fill:#ac9393;fill-opacity:1"
       d="m 105.82411,843.35089 c 7.33714,14.33289 19.38355,23.1481 19.38355,23.1481 0,0 -13.00819,12.42601 -21.6531,28.66563 -8.644903,16.23962 -13.909773,48.84823 -10.893723,54.00582 13.458883,-12.30523 28.198313,-15.73768 41.543613,-17.54132 42.16488,-3.19112 41.47321,-11.57106 46.78297,-20.64621 7.74776,6.96891 18.73463,12.65532 36.57894,18.26024 -0.45503,12.67975 -17.65136,42.28458 -78.36149,55.97204 -46.450368,9.04624 -73.340024,17.03411 -101.979639,67.14701 -15.35007,-57.7977 17.956896,-187.66059 68.598879,-209.01131 z"
       id="rect3053"
       inkscape:connector-curvature="0"
       sodipodi:nodetypes="cczccccccc" />
    <path
       style="fill:#ac9393;fill-opacity:1"
       d="m 133.90728,881.87154 30.10319,24.0436 c -18.70222,25.03138 -31.19531,10.57275 -53.84713,22.03542 -5.3089,-13.73642 11.13177,-39.02004 23.74394,-46.07902 z"
       id="rect3056"
       inkscape:connector-curvature="0"
       sodipodi:nodetypes="cccc" />
  </g>
</svg>
