<?xml version="1.0" encoding="UTF-8" standalone="no"?>
<!-- Created with Inkscape (http://www.inkscape.org/) -->

<svg
   xmlns:dc="http://purl.org/dc/elements/1.1/"
   xmlns:cc="http://creativecommons.org/ns#"
   xmlns:rdf="http://www.w3.org/1999/02/22-rdf-syntax-ns#"
   xmlns:svg="http://www.w3.org/2000/svg"
   xmlns="http://www.w3.org/2000/svg"
   xmlns:xlink="http://www.w3.org/1999/xlink"
   xmlns:sodipodi="http://sodipodi.sourceforge.net/DTD/sodipodi-0.dtd"
   xmlns:inkscape="http://www.inkscape.org/namespaces/inkscape"
   width="744.09448819"
   height="1052.3622047"
   id="svg2"
   version="1.1"
   inkscape:version="0.48.4 r9939"
   sodipodi:docname="Coffee Cup.svg"
   inkscape:export-filename="C:\Users\joe.zusi\Dropbox\Inkscape Pictures\Coffee Cup.png"
   inkscape:export-xdpi="90"
   inkscape:export-ydpi="90">
  <defs
     id="defs4">
    <linearGradient
       id="linearGradient6420">
      <stop
         style="stop-color:#080404;stop-opacity:1;"
         offset="0"
         id="stop6422" />
      <stop
         style="stop-color:#c2c2c2;stop-opacity:0;"
         offset="1"
         id="stop6424" />
    </linearGradient>
    <linearGradient
       inkscape:collect="always"
       id="linearGradient6410">
      <stop
         style="stop-color:#dadada;stop-opacity:1;"
         offset="0"
         id="stop6412" />
      <stop
         style="stop-color:#dadada;stop-opacity:0;"
         offset="1"
         id="stop6414" />
    </linearGradient>
    <linearGradient
       inkscape:collect="always"
       id="linearGradient6390">
      <stop
         style="stop-color:#ffffff;stop-opacity:1;"
         offset="0"
         id="stop6392" />
      <stop
         style="stop-color:#ffffff;stop-opacity:0;"
         offset="1"
         id="stop6394" />
    </linearGradient>
    <linearGradient
       id="linearGradient4903">
      <stop
         style="stop-color:#f3f3f3;stop-opacity:1;"
         offset="0"
         id="stop4905" />
      <stop
         style="stop-color:#c0c0c0;stop-opacity:1;"
         offset="1"
         id="stop4907" />
    </linearGradient>
    <linearGradient
       id="linearGradient4890">
      <stop
         style="stop-color:#f0f0f0;stop-opacity:1;"
         offset="0"
         id="stop4892" />
      <stop
         style="stop-color:#c3c3c3;stop-opacity:1;"
         offset="1"
         id="stop4894" />
    </linearGradient>
    <inkscape:path-effect
       effect="spiro"
       id="path-effect4869"
       is_visible="true" />
    <linearGradient
       id="linearGradient4827">
      <stop
         style="stop-color:#ffffff;stop-opacity:1;"
         offset="0"
         id="stop4829" />
      <stop
         style="stop-color:#d0d0d0;stop-opacity:1;"
         offset="1"
         id="stop4831" />
    </linearGradient>
    <radialGradient
       inkscape:collect="always"
       xlink:href="#linearGradient4827"
       id="radialGradient4833"
       cx="315.64066"
       cy="920.97223"
       fx="315.64066"
       fy="920.97223"
       r="266.42856"
       gradientTransform="matrix(0.94326578,0,0,0.18068542,41.552661,632.38447)"
       gradientUnits="userSpaceOnUse" />
    <radialGradient
       inkscape:collect="always"
       xlink:href="#linearGradient4827"
       id="radialGradient4837"
       gradientUnits="userSpaceOnUse"
       gradientTransform="matrix(0.94326578,0,0,0.18068542,41.552661,632.38447)"
       cx="315.64066"
       cy="920.97223"
       fx="315.64066"
       fy="920.97223"
       r="266.42856" />
    <radialGradient
       inkscape:collect="always"
       xlink:href="#linearGradient4890"
       id="radialGradient4896"
       cx="389.27454"
       cy="567.97284"
       fx="389.27454"
       fy="567.97284"
       r="234.79688"
       gradientTransform="matrix(1,0,0,0.690557,0,199.44085)"
       gradientUnits="userSpaceOnUse" />
    <radialGradient
       inkscape:collect="always"
       xlink:href="#linearGradient4903"
       id="radialGradient4909"
       cx="385"
       cy="67.083458"
       fx="385"
       fy="67.083458"
       r="235"
       gradientTransform="matrix(1,0,0,0.17786116,0,132.64319)"
       gradientUnits="userSpaceOnUse" />
    <radialGradient
       inkscape:collect="always"
       xlink:href="#linearGradient4890"
       id="radialGradient4913"
       gradientUnits="userSpaceOnUse"
       gradientTransform="matrix(1,0,0,0.690557,-24,199.44085)"
       cx="389.27454"
       cy="567.97284"
       fx="389.27454"
       fy="567.97284"
       r="234.79688" />
    <radialGradient
       inkscape:collect="always"
       xlink:href="#linearGradient6390"
       id="radialGradient6398"
       cx="365"
       cy="460.57648"
       fx="365"
       fy="460.57648"
       r="108.57143"
       gradientTransform="matrix(1,0,0,0.3782895,0,286.34523)"
       gradientUnits="userSpaceOnUse" />
    <linearGradient
       inkscape:collect="always"
       xlink:href="#linearGradient6410"
       id="linearGradient6416"
       x1="572.14288"
       y1="668.76276"
       x2="672.34039"
       y2="460.90561"
       gradientUnits="userSpaceOnUse" />
    <radialGradient
       inkscape:collect="always"
       xlink:href="#linearGradient6420"
       id="radialGradient6426"
       cx="371.73615"
       cy="780.63116"
       fx="371.73615"
       fy="780.63116"
       r="305.06607"
       gradientTransform="matrix(1,0,0,0.29139073,0,553.16248)"
       gradientUnits="userSpaceOnUse" />
  </defs>
  <sodipodi:namedview
     id="base"
     pagecolor="#ffffff"
     bordercolor="#666666"
     borderopacity="1.0"
     inkscape:pageopacity="0.0"
     inkscape:pageshadow="2"
     inkscape:zoom="0.98994949"
     inkscape:cx="437.66756"
     inkscape:cy="520"
     inkscape:document-units="px"
     inkscape:current-layer="layer1"
     showgrid="false"
     inkscape:window-width="1920"
     inkscape:window-height="1018"
     inkscape:window-x="1912"
     inkscape:window-y="-8"
     inkscape:window-maximized="1">
    <inkscape:grid
       type="xygrid"
       id="grid4871" />
  </sodipodi:namedview>
  <metadata
     id="metadata7">
    <rdf:RDF>
      <cc:Work
         rdf:about="">
        <dc:format>image/svg+xml</dc:format>
        <dc:type
           rdf:resource="http://purl.org/dc/dcmitype/StillImage" />
        <dc:title></dc:title>
      </cc:Work>
    </rdf:RDF>
  </metadata>
  <g
     inkscape:label="Layer 1"
     inkscape:groupmode="layer"
     id="layer1">
    <path
       sodipodi:type="arc"
       style="fill:url(#radialGradient6426);fill-opacity:1;fill-rule:evenodd;stroke:none"
       id="path6418"
       sodipodi:cx="371.73615"
       sodipodi:cy="780.63116"
       sodipodi:rx="305.06607"
       sodipodi:ry="88.893425"
       d="m 676.80222,780.63116 a 305.06607,88.893425 0 1 1 -610.132146,0 305.06607,88.893425 0 1 1 610.132146,0 z"
       transform="matrix(1.1423842,0,0,1.1423842,-52.929321,-111.14947)" />
    <path
       style="fill:url(#linearGradient6416);fill-opacity:1;stroke:#a7a7a7;stroke-opacity:1"
       d="m 578.57143,551.64789 0,24.99999 c 0,0 38.38273,-23.17419 55.71429,4.28573 7.33581,11.62277 -11.23561,37.33706 -37.35528,57.28851 -26.11967,19.95145 -57.76727,7.87609 -57.76727,7.87609 l -21.42857,36.42857 c 0,0 63.25533,8.85541 100.67326,-31.14405 35.71929,-38.18362 55.18358,-78.18363 38.735,-91.16341 -33.10673,-26.12494 -78.57143,-8.57143 -78.57143,-8.57143 z"
       id="path4916"
       inkscape:connector-curvature="0"
       sodipodi:nodetypes="ccssccssc" />
    <path
       d="m 652.85712,770.2193 a 266.42856,52.142857 0 1 1 -532.85712,0 266.42856,52.142857 0 1 1 532.85712,0 z"
       sodipodi:ry="52.142857"
       sodipodi:rx="266.42856"
       sodipodi:cy="770.2193"
       sodipodi:cx="386.42856"
       id="path4847"
       style="fill:#404040;fill-opacity:1;fill-rule:evenodd;stroke:none"
       sodipodi:type="arc"
       transform="matrix(0.84986596,0,0,1.0857909,34.016086,-54.077798)" />
    <path
       d="m 652.85712,770.2193 a 266.42856,52.142857 0 1 1 -532.85712,0 266.42856,52.142857 0 1 1 532.85712,0 z"
       sodipodi:ry="52.142857"
       sodipodi:rx="266.42856"
       sodipodi:cy="770.2193"
       sodipodi:cx="386.42856"
       id="path4839"
       style="fill:#ffffff;fill-opacity:0.99607843;fill-rule:evenodd;stroke:#000000;stroke-opacity:1"
       sodipodi:type="arc"
       transform="translate(-24,6)" />
    <path
       sodipodi:type="arc"
       style="fill:url(#radialGradient4833);fill-opacity:1;fill-rule:evenodd;stroke:none"
       id="path4057"
       sodipodi:cx="386.42856"
       sodipodi:cy="770.2193"
       sodipodi:rx="266.42856"
       sodipodi:ry="52.142857"
       d="m 652.85712,770.2193 a 266.42856,52.142857 0 1 1 -532.85712,0 266.42856,52.142857 0 1 1 532.85712,0 z"
       transform="translate(-24,2)" />
    <path
       sodipodi:type="arc"
       style="fill:#b6b6b6;fill-opacity:0.99607843;fill-rule:evenodd;stroke:none"
       id="path4855"
       sodipodi:cx="386.42856"
       sodipodi:cy="770.2193"
       sodipodi:rx="266.42856"
       sodipodi:ry="52.142857"
       d="m 652.85712,770.2193 a 266.42856,52.142857 0 1 1 -532.85712,0 266.42856,52.142857 0 1 1 532.85712,0 z"
       transform="matrix(0.45205479,0,0,0.45205479,187.74168,440.03798)" />
    <path
       transform="matrix(0.45205479,0,0,0.45205479,187.74168,442.03798)"
       d="m 652.85712,770.2193 a 266.42856,52.142857 0 1 1 -532.85712,0 266.42856,52.142857 0 1 1 532.85712,0 z"
       sodipodi:ry="52.142857"
       sodipodi:rx="266.42856"
       sodipodi:cy="770.2193"
       sodipodi:cx="386.42856"
       id="path4851"
       style="fill:#868686;fill-opacity:0.99607843;fill-rule:evenodd;stroke:none"
       sodipodi:type="arc" />
    <path
       style="fill:url(#radialGradient4913);fill-opacity:1;fill-rule:evenodd;stroke:none"
       d="M 126.28125,484.8125 C 132.10153,663.96307 234.94819,806.65625 361,806.65625 c 126.02255,0 228.82382,-142.62671 234.6875,-321.71875 C 589.39346,504.18526 486.73108,519.5 361,519.5 234.99107,519.5 132.16193,504.1202 126.28125,484.8125 z"
       id="path4880"
       inkscape:connector-curvature="0" />
    <path
       transform="translate(-23.999999,324.28572)"
       d="m 620,158.79076 a 235,36.42857 0 1 1 -470,0 235,36.42857 0 1 1 470,0 z"
       sodipodi:ry="36.42857"
       sodipodi:rx="235"
       sodipodi:cy="158.79076"
       sodipodi:cx="385"
       id="path4887"
       style="fill:#e0e0e0;fill-opacity:0.99607843;fill-rule:evenodd;stroke:none"
       sodipodi:type="arc" />
    <path
       sodipodi:type="arc"
       style="fill:url(#radialGradient4909);fill-opacity:1;fill-rule:evenodd;stroke:none"
       id="path4901"
       sodipodi:cx="385"
       sodipodi:cy="158.79076"
       sodipodi:rx="235"
       sodipodi:ry="36.42857"
       d="m 620,158.79076 a 235,36.42857 0 1 1 -470,0 235,36.42857 0 1 1 470,0 z"
       transform="matrix(0.91334405,0,0,0.80392156,9.36254,355.42116)" />
    <path
       transform="matrix(0.78568448,0,0,0.4215686,58.511476,428.06385)"
       style="fill:#572304;fill-opacity:0.99607843;fill-rule:evenodd;stroke:none"
       d="m 620,158.79076 c 0,20.11894 -105.21308,36.42857 -235,36.42857 -129.78692,0 -235,-16.30963 -235,-36.42857 0,-20.11895 105.21308,-51.67774 235,-51.67774 129.78692,0 235,31.55879 235,51.67774 z"
       id="path4911"
       inkscape:connector-curvature="0"
       sodipodi:nodetypes="sssss" />
    <path
       style="fill:#1700ff;fill-opacity:0.99607843;fill-rule:evenodd;stroke:none"
       d="m 129.22758,515.58187 c -0.22989,0.65631 -0.37044,1.31047 -0.37044,1.97569 0,19.87433 103.9339,35.99449 232.14286,35.99449 128.20896,0 232.14286,-16.12016 232.14286,-35.99449 0,-0.66522 -0.14055,-1.31938 -0.37044,-1.97569 -6.62598,18.9541 -107.8463,34.01881 -231.77242,34.01881 -123.92612,0 -225.14644,-15.06471 -231.77242,-34.01881 z"
       id="path4922"
       inkscape:connector-curvature="0" />
    <path
       inkscape:connector-curvature="0"
       id="path4925"
       d="m 131.36702,537.75711 c -0.22777,0.65026 -0.36703,1.29838 -0.36703,1.95746 0,19.69088 102.97451,35.66224 230.00001,35.66224 127.0255,0 230.00001,-15.97136 230.00001,-35.66224 0,-0.65908 -0.13926,-1.3072 -0.36703,-1.95746 C 584.06816,556.53625 483.78218,571.4619 361,571.4619 c -122.78218,0 -223.06816,-14.92565 -229.63298,-33.70479 z"
       style="fill:#1700ff;fill-opacity:0.99607843;fill-rule:evenodd;stroke:none" />
    <path
       style="fill:#1700ff;fill-opacity:0.99607843;fill-rule:evenodd;stroke:none"
       d="m 172.72948,667.14522 c -0.18674,0.53313 -0.30092,1.06451 -0.30092,1.60487 0,16.14408 84.42631,29.23861 188.57144,29.23861 104.14513,0 188.57144,-13.09453 188.57144,-29.23861 0,-0.54036 -0.11418,-1.07174 -0.30092,-1.60487 -5.38233,15.39656 -87.60438,27.63374 -188.27052,27.63374 -100.66614,0 -182.88819,-12.23718 -188.27052,-27.63374 z"
       id="path4927"
       inkscape:connector-curvature="0" />
    <path
       style="fill:#ffffff;fill-opacity:0.31216933;stroke:none"
       d="m 158.57143,541.6479 c 0,0 11.54824,3.32849 17.85714,5 6.3089,1.67151 20,5 20,5 0,0 13.02065,61.94128 20,86.42856 6.97935,24.48729 40,92.14287 40,92.14287 0,0 -46.23615,-59.7895 -59.99999,-86.42858 C 182.66474,617.15168 158.57143,541.6479 158.57143,541.6479 z"
       id="path4931"
       inkscape:connector-curvature="0"
       sodipodi:nodetypes="czczcsc" />
    <path
       sodipodi:type="arc"
       style="fill:url(#radialGradient6398);fill-opacity:1;fill-rule:evenodd;stroke:none"
       id="path4933"
       sodipodi:cx="365"
       sodipodi:cy="460.57648"
       sodipodi:rx="108.57143"
       sodipodi:ry="41.07143"
       d="m 473.57143,460.57648 a 108.57143,41.07143 0 1 1 -217.14286,0 108.57143,41.07143 0 1 1 217.14286,0 z"
       transform="matrix(1,0,0,1.1304348,0,-65.432333)" />
    <path
       style="fill:#da6200;fill-opacity:0.1058201;stroke:none"
       d="m 341.42858,480.93361 c 0,0 43.57142,-10.71428 42.85714,-34.28571 -0.71429,-23.57143 -36.42857,-32.08344 -36.42857,-49.28572 0,-17.20228 35.71428,-10.71429 35.71428,-10.71429 0,0 -12.14285,-13.57142 -25,-12.85714 -13.1505,0.73059 -27.15113,0.44976 -26.42857,23.57144 0.72255,23.12167 38.57143,35.1535 38.57143,51.42857 0,16.27506 -29.28571,32.14285 -29.28571,32.14285 z"
       id="path6400"
       inkscape:connector-curvature="0"
       sodipodi:nodetypes="czzcszzc" />
  </g>
</svg>
