<?xml version="1.0" encoding="UTF-8" standalone="no"?>
<!-- Created with Inkscape (http://www.inkscape.org/) -->

<svg
   xmlns:dc="http://purl.org/dc/elements/1.1/"
   xmlns:cc="http://creativecommons.org/ns#"
   xmlns:rdf="http://www.w3.org/1999/02/22-rdf-syntax-ns#"
   xmlns:svg="http://www.w3.org/2000/svg"
   xmlns="http://www.w3.org/2000/svg"
   xmlns:sodipodi="http://sodipodi.sourceforge.net/DTD/sodipodi-0.dtd"
   xmlns:inkscape="http://www.inkscape.org/namespaces/inkscape"
   width="500"
   height="1500"
   id="svg2"
   version="1.1"
   inkscape:version="0.48.4 r9939"
   sodipodi:docname="Excalibur.svg"
   inkscape:export-filename="C:\Users\JoeDono\Dropbox\Inkscape Pictures\Excalibur.png"
   inkscape:export-xdpi="90"
   inkscape:export-ydpi="90">
  <defs
     id="defs4" />
  <sodipodi:namedview
     id="base"
     pagecolor="#ffffff"
     bordercolor="#666666"
     borderopacity="1.0"
     inkscape:pageopacity="0.0"
     inkscape:pageshadow="2"
     inkscape:zoom="0.7"
     inkscape:cx="293.0875"
     inkscape:cy="637.71627"
     inkscape:document-units="px"
     inkscape:current-layer="layer1"
     showgrid="false"
     inkscape:window-width="1920"
     inkscape:window-height="1018"
     inkscape:window-x="-8"
     inkscape:window-y="-8"
     inkscape:window-maximized="1"
     showguides="true"
     inkscape:guide-bbox="true"
     height="744.09px" />
  <metadata
     id="metadata7">
    <rdf:RDF>
      <cc:Work
         rdf:about="">
        <dc:format>image/svg+xml</dc:format>
        <dc:type
           rdf:resource="http://purl.org/dc/dcmitype/StillImage" />
        <dc:title></dc:title>
      </cc:Work>
    </rdf:RDF>
  </metadata>
  <g
     inkscape:label="Layer 1"
     inkscape:groupmode="layer"
     id="layer1"
     transform="translate(0,447.63774)">
    <path
       style="fill:#aeaeae;fill-opacity:1;stroke:none"
       d="m 243.22735,-84.661781 0,1126.269781 L 216.52502,767.00802 202.60973,507.16266 194.71186,201.41402 184.55745,-83.022381 z"
       id="path3790"
       inkscape:connector-curvature="0"
       sodipodi:nodetypes="ccccccc" />
    <path
       sodipodi:nodetypes="ccccccc"
       inkscape:connector-curvature="0"
       id="path3794"
       d="m 243.22735,-84.661781 0,945.935451 -14.72052,-230.63201 -7.67125,-218.23984 -4.35395,-256.79325 -5.59794,-238.893441 z"
       style="fill:#c7c7c7;fill-opacity:1;stroke:none" />
    <path
       sodipodi:nodetypes="ccccccc"
       inkscape:connector-curvature="0"
       id="path3792"
       d="m 242.63769,-84.661781 0,1126.269781 26.70233,-274.59998 13.91529,-259.84536 7.89787,-305.74864 10.15441,-284.436401 z"
       style="fill:#aeaeae;fill-opacity:1;stroke:none" />
    <path
       style="fill:#c7c7c7;fill-opacity:1;stroke:none"
       d="m 242.15766,-84.661781 0,945.935451 14.72052,-230.63201 7.67125,-218.23984 4.35395,-256.79325 5.59794,-238.893441 z"
       id="path3796"
       inkscape:connector-curvature="0"
       sodipodi:nodetypes="ccccccc" />
    <path
       style="fill:#ffd05e;fill-opacity:1;stroke:#000000;stroke-width:0.74461842;stroke-linejoin:miter;stroke-miterlimit:4;stroke-opacity:1"
       d="m 213.98008,-171.61164 62.49477,0 -12.49895,20.477 -36.16719,0 z"
       id="rect3758"
       inkscape:connector-curvature="0"
       sodipodi:nodetypes="ccccc" />
    <path
       style="fill:#ffd05e;fill-opacity:1;stroke:none"
       d="m 203.78152,-84.155281 0,160.8149 c 26.62091,12.142857 39.9573,49.750991 39.9573,49.750991 0,0 9.52998,-36.179562 41.59471,-49.750991 l 0,-160.8149 z"
       id="rect3798"
       inkscape:connector-curvature="0"
       sodipodi:nodetypes="cccccc" />
    <path
       style="fill:#ffd05e;fill-opacity:1;stroke:none"
       d="m 179.67444,-94.437251 127.64888,0 0.53188,35.10345 c 0,0 -42.36135,-8.50993 -63.82444,-8.50993 -21.46309,0 -63.82444,8.50993 -63.82444,8.50993 z"
       id="rect3811"
       inkscape:connector-curvature="0"
       sodipodi:nodetypes="cccscc" />
    <path
       style="fill:#ffd05e;fill-opacity:1;stroke:#000000;stroke-width:0.6691134;stroke-linejoin:miter;stroke-miterlimit:4;stroke-opacity:1"
       d="m 73.67773,-132.24481 c 0,0 90.45989,-18.12347 126.96344,-21.66928 43.3267,-3.7224 71.93394,-1.01396 96.88615,0.21455 40.79018,2.06645 125.36641,21.45473 125.36641,21.45473 l 0,61.789619 c 0,0 -117.47002,-22.31292 -175.67269,-22.31292 -58.20266,0 -173.54331,22.31292 -173.54331,22.31292 z"
       id="rect2985"
       inkscape:connector-curvature="0"
       sodipodi:nodetypes="ccccczcc" />
    <path
       style="fill:#0000ff;fill-opacity:1;stroke:#000000;stroke-width:0.74461842;stroke-linejoin:miter;stroke-miterlimit:4;stroke-opacity:1"
       d="m 222.03731,-418.52729 45.13069,0 c 0,0 -1.91326,225.12355 1.06374,230.85317 2.97702,5.72962 7.04729,15.28111 7.04729,15.28111 l -62.54945,0 c 0,0 5.58773,-10.38823 7.18025,-15.14814 1.59253,-4.75993 2.12748,-230.98614 2.12748,-230.98614 z"
       id="rect3761"
       inkscape:connector-curvature="0"
       sodipodi:nodetypes="cczcczc" />
    <path
       style="fill:#ffd05e;fill-opacity:1;stroke:#000000;stroke-width:0.74461842;stroke-opacity:1"
       d="m 267.03113,-418.54069 c -7.83559,0 -28.73338,0 -45.31874,0 0,-6.7202 10.14494,-9.8279 22.65937,-9.8279 12.51442,0 22.65937,2.7649 22.65937,9.8279 z"
       id="path3764"
       inkscape:connector-curvature="0"
       sodipodi:nodetypes="ccsc" />
    <rect
       style="fill:#ffd05e;fill-opacity:1;stroke:#000000;stroke-width:0.72576743;stroke-linejoin:miter;stroke-miterlimit:4;stroke-opacity:1;stroke-dasharray:none"
       id="rect3777"
       width="67.150757"
       height="6.4123659"
       x="211.37387"
       y="-173.74538"
       ry="3.206183"
       rx="2.8498995" />
    <rect
       style="fill:#dec07f;fill-opacity:1;stroke:none"
       id="rect3781"
       width="7.0588331"
       height="46.686184"
       x="240.89679"
       y="-149.79518"
       rx="3.5294166"
       ry="23.343092" />
    <path
       style="fill:none;stroke:#0000ff;stroke-width:3.74703503;stroke-linecap:round;stroke-linejoin:round;stroke-miterlimit:4;stroke-opacity:0.62234042;stroke-dasharray:none"
       d="m 91.24499,-88.262611 96.61997,-48.487699 29.01262,25.10204"
       id="path3783"
       inkscape:connector-curvature="0"
       sodipodi:nodetypes="ccc" />
    <path
       sodipodi:nodetypes="ccc"
       inkscape:connector-curvature="0"
       id="path3785"
       d="m 397.07516,-88.477161 -96.61997,-48.487689 -29.01262,25.10203"
       style="fill:none;stroke:#0000ff;stroke-width:3.74703503;stroke-linecap:round;stroke-linejoin:round;stroke-miterlimit:4;stroke-opacity:0.62234042;stroke-dasharray:none" />
    <path
       style="fill:#ffd05e;fill-opacity:1;stroke:none"
       d="m 180.31397,-63.935761 16.22613,-0.5826 2.70595,111.37371 c 0,0 -10.08129,-0.14894 -13.56677,-10.05481 -4.77392,-17.82483 -5.36531,-100.7363 -5.36531,-100.7363 z"
       id="rect3814"
       inkscape:connector-curvature="0"
       sodipodi:nodetypes="ccccc" />
    <path
       sodipodi:nodetypes="ccccc"
       inkscape:connector-curvature="0"
       id="path3817"
       d="m 308.27946,-63.935761 -16.22613,-0.5826 -2.70594,111.37371 c 0,0 10.08128,-0.14894 13.56676,-10.05481 4.77392,-17.82483 5.36531,-100.7363 5.36531,-100.7363 z"
       style="fill:#ffd05e;fill-opacity:1;stroke:none" />
    <rect
       style="fill:#0000ff;fill-opacity:1;stroke:none"
       id="rect3821"
       width="19.275078"
       height="19.275078"
       x="150.85083"
       y="-243.71425"
       transform="matrix(0.6193029,0.78515216,-0.6193029,0.78515216,0,0)" />
    <g
       id="g3830"
       transform="matrix(0.74461843,0,0,0.74461843,-16.650221,261.49443)">
      <rect
         ry="7.4868598"
         y="-402.2067"
         x="309.10669"
         height="44.39595"
         width="24.243555"
         id="rect3826"
         style="fill:#0000ff;fill-opacity:1;stroke:none" />
      <rect
         transform="matrix(0.70459284,0.70961182,0,1,0,0)"
         style="fill:#0000ff;fill-opacity:1;stroke:none"
         id="rect3828"
         width="34.40789"
         height="35.304577"
         x="438.70255"
         y="-734.77917"
         ry="0" />
    </g>
    <g
       transform="matrix(-0.74461843,0,0,0.74461843,505.73746,261.49443)"
       id="g3834">
      <rect
         style="fill:#0000ff;fill-opacity:1;stroke:none"
         id="rect3836"
         width="24.243555"
         height="44.39595"
         x="309.10669"
         y="-402.2067"
         ry="7.4868598" />
      <rect
         ry="0"
         y="-734.77917"
         x="438.70255"
         height="35.304577"
         width="34.40789"
         id="rect3838"
         style="fill:#0000ff;fill-opacity:1;stroke:none"
         transform="matrix(0.70459284,0.70961182,0,1,0,0)" />
    </g>
    <rect
       style="fill:#0000ff;fill-opacity:1;stroke:none"
       id="rect3840"
       width="13.506599"
       height="68.517288"
       x="224.42291"
       y="1.0793895"
       ry="5.3055429" />
    <rect
       ry="5.0023689"
       y="1.0793895"
       x="251.91"
       height="68.517288"
       width="13.506599"
       id="rect3842"
       style="fill:#0000ff;fill-opacity:1;stroke:none" />
    <path
       style="fill:#0000ff;fill-opacity:1;stroke:none"
       d="m 224.42289,35.641189 20.49686,22.73803 20.49686,-22.73803 0,31.83326 c 0,0 -8.618,5.079343 -12.03414,8.869015 -3.41614,3.789672 -8.46272,13.869015 -8.46272,13.869015 0,0 -5.40372,-9.7222 -8.81986,-13.511872 -3.41614,-3.789672 -11.677,-9.226158 -11.677,-9.226158 z"
       id="rect3844"
       inkscape:connector-curvature="0"
       sodipodi:nodetypes="cccczczcc" />
  </g>
</svg>
