<?xml version="1.0" encoding="UTF-8" standalone="no"?>
<!-- Created with Inkscape (http://www.inkscape.org/) -->

<svg
   xmlns:dc="http://purl.org/dc/elements/1.1/"
   xmlns:cc="http://creativecommons.org/ns#"
   xmlns:rdf="http://www.w3.org/1999/02/22-rdf-syntax-ns#"
   xmlns:svg="http://www.w3.org/2000/svg"
   xmlns="http://www.w3.org/2000/svg"
   xmlns:xlink="http://www.w3.org/1999/xlink"
   xmlns:sodipodi="http://sodipodi.sourceforge.net/DTD/sodipodi-0.dtd"
   xmlns:inkscape="http://www.inkscape.org/namespaces/inkscape"
   width="744.09448819"
   height="1052.3622047"
   id="svg2"
   version="1.1"
   inkscape:version="0.48.4 r9939"
   sodipodi:docname="RSS Box.svg"
   inkscape:export-filename="C:\Users\joe.zusi\Dropbox\Inkscape Pictures\RSS Box.png"
   inkscape:export-xdpi="90"
   inkscape:export-ydpi="90">
  <defs
     id="defs4">
    <inkscape:path-effect
       effect="envelope"
       id="path-effect4079"
       is_visible="true"
       yy="true"
       xx="true"
       bendpath1="M 374.83892,565.57647 550.68634,487.71933"
       bendpath2="m 549.97206,492.00504 11.42857,196.7857"
       bendpath3="M 378.41035,785.21931 563.54349,694.50502"
       bendpath4="m 374.83892,565.57647 0,216.07141"
       bendpath1-nodetypes="cc"
       bendpath2-nodetypes="cc"
       bendpath3-nodetypes="cc" />
    <linearGradient
       id="linearGradient3904">
      <stop
         style="stop-color:#ffffff;stop-opacity:0.49107143;"
         offset="0"
         id="stop3906" />
      <stop
         style="stop-color:#ffffff;stop-opacity:0;"
         offset="1"
         id="stop3908" />
    </linearGradient>
    <linearGradient
       id="linearGradient3889">
      <stop
         style="stop-color:#e1b386;stop-opacity:1;"
         offset="0"
         id="stop3891" />
      <stop
         style="stop-color:#a27f5d;stop-opacity:1;"
         offset="1"
         id="stop3893" />
    </linearGradient>
    <linearGradient
       id="linearGradient3881">
      <stop
         style="stop-color:#9a928a;stop-opacity:1;"
         offset="0"
         id="stop3883" />
      <stop
         style="stop-color:#a27f5d;stop-opacity:1;"
         offset="1"
         id="stop3885" />
    </linearGradient>
    <inkscape:perspective
       sodipodi:type="inkscape:persp3d"
       inkscape:vp_x="-45.714286 : 707.60966 : 1"
       inkscape:vp_y="0 : 1000 : 0"
       inkscape:vp_z="698.38019 : 707.60966 : 1"
       inkscape:persp3d-origin="326.33295 : 532.21596 : 1"
       id="perspective2985" />
    <radialGradient
       inkscape:collect="always"
       xlink:href="#linearGradient3881"
       id="radialGradient3887"
       cx="200.71428"
       cy="651.17426"
       fx="200.71428"
       fy="651.17426"
       r="101.21429"
       gradientTransform="matrix(1.5504587,0.07057163,-0.08820489,1.9378613,-53.048173,-608.9566)"
       gradientUnits="userSpaceOnUse" />
    <radialGradient
       inkscape:collect="always"
       xlink:href="#linearGradient3889"
       id="radialGradient3895"
       cx="536.71094"
       cy="681.95636"
       fx="536.71094"
       fy="681.95636"
       r="114.35379"
       gradientTransform="matrix(0.07555066,-1.6115401,1.6568102,0.07767297,-633.71019,1520.0127)"
       gradientUnits="userSpaceOnUse" />
    <filter
       inkscape:collect="always"
       id="filter3940">
      <feGaussianBlur
         inkscape:collect="always"
         stdDeviation="48.761058"
         id="feGaussianBlur3942" />
    </filter>
    <filter
       inkscape:collect="always"
       id="filter3950">
      <feGaussianBlur
         inkscape:collect="always"
         stdDeviation="1.8214286"
         id="feGaussianBlur3952" />
    </filter>
    <filter
       inkscape:collect="always"
       id="filter3960">
      <feGaussianBlur
         inkscape:collect="always"
         stdDeviation="4.2232144"
         id="feGaussianBlur3962" />
    </filter>
    <filter
       inkscape:collect="always"
       id="filter3966">
      <feGaussianBlur
         inkscape:collect="always"
         stdDeviation="5.419643"
         id="feGaussianBlur3968" />
    </filter>
    <filter
       id="filter4029"
       inkscape:label="Oil painting"
       inkscape:menu="Image effects"
       inkscape:menu-tooltip="Simulate oil painting style"
       color-interpolation-filters="sRGB">
      <feMorphology
         id="feMorphology4031"
         radius="2"
         in="SourceGraphic"
         result="result0" />
      <feTurbulence
         id="feTurbulence4033"
         numOctaves="1"
         baseFrequency="0.078"
         result="result91" />
      <feDisplacementMap
         id="feDisplacementMap4035"
         in2="result91"
         in="result0"
         scale="6.3"
         xChannelSelector="R"
         yChannelSelector="G" />
    </filter>
    <filter
       inkscape:collect="always"
       id="filter4083"
       x="-0.13307058"
       width="1.2661412"
       y="-0.10926743"
       height="1.2185349">
      <feGaussianBlur
         inkscape:collect="always"
         stdDeviation="10.38204"
         id="feGaussianBlur4085" />
    </filter>
  </defs>
  <sodipodi:namedview
     id="base"
     pagecolor="#ffffff"
     bordercolor="#666666"
     borderopacity="1.0"
     inkscape:pageopacity="0.0"
     inkscape:pageshadow="2"
     inkscape:zoom="0.7"
     inkscape:cx="295.84502"
     inkscape:cy="477.81619"
     inkscape:document-units="px"
     inkscape:current-layer="layer1"
     showgrid="false"
     inkscape:snap-bbox="true"
     inkscape:window-width="1920"
     inkscape:window-height="1018"
     inkscape:window-x="1912"
     inkscape:window-y="-8"
     inkscape:window-maximized="1" />
  <metadata
     id="metadata7">
    <rdf:RDF>
      <cc:Work
         rdf:about="">
        <dc:format>image/svg+xml</dc:format>
        <dc:type
           rdf:resource="http://purl.org/dc/dcmitype/StillImage" />
        <dc:title></dc:title>
      </cc:Work>
    </rdf:RDF>
  </metadata>
  <g
     inkscape:label="Box"
     inkscape:groupmode="layer"
     id="layer1"
     style="display:inline">
    <path
       style="fill:#a27f5d;fill-opacity:1;fill-rule:evenodd;stroke:#000000;stroke-opacity:1"
       d="m 250.71428,495.47754 100.71429,55.65483 223.42187,-97.96624 -114.8719,-36.5854"
       id="path3843"
       inkscape:connector-curvature="0" />
    <path
       style="fill:#a27f5d;fill-opacity:1;fill-rule:evenodd;stroke:#000000;stroke-opacity:1"
       d="M 459.97854,416.58073 345.10664,379.99533 150,439.82271 250.71428,495.47754"
       id="path3791"
       inkscape:connector-curvature="0" />
    <path
       inkscape:connector-curvature="0"
       id="path3793"
       style="fill:url(#radialGradient3895);fill-opacity:1;fill-rule:evenodd;stroke:#000000;stroke-opacity:1"
       d="m 354.28571,551.13236 0,280.37498 227.70758,-122.45098 c 0,0 -4.08864,-67.24245 -10.71429,-109.37369 -7.38095,-46.93409 3.92858,-146.15941 3.92858,-146.15941 z"
       sodipodi:nodetypes="cccscc" />
    <path
       inkscape:connector-curvature="0"
       id="path3795"
       style="fill:url(#radialGradient3887);fill-opacity:1;fill-rule:evenodd;stroke:#000000;stroke-opacity:1"
       d="m 151.42857,438.39414 201.42857,111.30966 0,280.37498 L 151.42857,691.4867 c 0,0 18.57143,-77.22133 10,-119.40342 -8.57143,-42.1821 -10,-133.68914 -10,-133.68914 z"
       sodipodi:nodetypes="cccczc" />
    <path
       transform="matrix(0.09372972,-0.08446478,0.08446478,0.09372972,372.53819,494.17432)"
       style="fill:#ffffff;fill-opacity:1;fill-rule:evenodd;stroke:none;filter:url(#filter3940)"
       inkscape:transform-center-x="0.97698271"
       inkscape:transform-center-y="15.372441"
       d="M -408.57142,268.64789 -1894.6281,1870.6786 -446.66702,232.35668 -1004.3322,-1514.5723 -396.19011,217.51053 1432.199,846.60311 z"
       id="path3901"
       inkscape:connector-curvature="0"
       sodipodi:nodetypes="ccccccc" />
    <path
       style="fill:#808080;fill-opacity:1;stroke:none;filter:url(#filter3950)"
       d="m 208.57143,721.6479 -50,-35 10,-28.57143 L 165,625.93361 l 9.28571,34.28572 -11.42857,24.28571 26.42857,12.14286 z"
       id="path3944"
       inkscape:connector-curvature="0" />
    <path
       style="fill:#808080;fill-opacity:1;stroke:none;filter:url(#filter3960)"
       d="M 277.85714,524.50504 310,538.79075 l 25.71429,14.28572 5.71428,71.42857 -15.71428,75 8.57142,-73.57143 L 325,592.36218 329.28571,559.50504 300,550.21932 l -52.85714,-35 -32.85715,-26.42857 z"
       id="path3954"
       inkscape:connector-curvature="0" />
    <path
       style="fill:#808080;fill-opacity:1;stroke:none;filter:url(#filter3966)"
       d="m 567.85714,635.21933 7.85715,65 -148.57143,85 21.42857,-20.71429 21.42857,-8.57143 5.71429,-15 40,-14.28571 21.42857,-15 L 570,698.79075 550,546.6479 l 9.28571,-22.14286 2.14286,-24.28572 -0.71428,38.57143 -2.85715,12.14286 5.71429,52.14286 z"
       id="path3964"
       inkscape:connector-curvature="0" />
    <path
       style="fill:#ffef00;fill-opacity:0.35978836;fill-rule:evenodd;stroke:none"
       d="m 237.85714,485.21933 35,20 -3.57143,23.92858 -4.55357,7.58929 -3.83929,-11.69643 -4.55357,6.875 -3.83929,-11.69643 -4.55357,6.875 -3.83928,-11.69643 -4.55357,6.875 -3.83929,-12.41072 z"
       id="rect4049"
       inkscape:connector-curvature="0"
       sodipodi:nodetypes="cccccccccccc" />
    <path
       style="fill:#ffef00;fill-opacity:0.35978836;fill-rule:evenodd;stroke:none"
       d="m 236.42857,485.21934 202.85715,-75.71429 39.28571,13.57142 -207.14286,81.42858 z"
       id="rect4052"
       inkscape:connector-curvature="0"
       sodipodi:nodetypes="ccccc" />
    <path
       inkscape:original-d="m 374.83892,605.29698 c 133.22316,0 182.49067,82.86536 182.49067,171.38715 30.29362,0 -26.70421,3.17806 43.74164,3.17806 0,-39.54109 18.70103,-214.28572 -225.71417,-214.28572 0,36.22271 -0.51814,0.51565 -0.51814,39.72051 z m 3.73251,67.77949 c 46.02878,2.08157 93.57143,36.4771 93.57143,106.42857 18.50212,0 -0.16835,0.71429 42.85714,0.71429 0,-19.39764 0.95167,-147.85715 -137.85714,-147.85715 0,24.99367 1.42857,13.66294 1.42857,40.71429 z m 70,72.49998 c 0,19.9217 -16.14973,36.07143 -36.07143,36.07143 -19.9217,0 -36.07143,-16.14973 -36.07143,-36.07143 0,-19.9217 16.14973,-36.07143 36.07143,-36.07143 19.9217,0 36.07143,16.14973 36.07143,36.07143 z"
       inkscape:path-effect="#path-effect4079"
       d="m 374.44913,605.07699 c 6.49072,-2.37924 12.72864,-4.52176 18.72432,-6.34777 5.99569,-1.82601 11.74911,-3.33661 17.26992,-4.49748 11.04162,-2.32174 21.15335,-3.22869 30.40692,-2.77003 18.50714,0.91733 33.59916,7.22634 45.68734,17.23184 6.04409,5.00275 11.3322,10.93357 15.90507,17.6601 4.57287,6.72654 8.42881,14.25142 11.62848,22.49412 3.19967,8.2427 5.74194,17.20674 7.72974,26.8152 1.98779,9.60847 3.42135,19.86394 4.45353,30.64613 6.10318,-3.22485 7.82284,-3.9751 7.86441,-3.69226 0.0416,0.28283 -1.59787,1.57407 -2.22721,2.31936 -0.62935,0.74529 -0.24673,0.96164 3.83253,-0.94677 2.03963,-0.9542 5.00311,-2.43946 9.2214,-4.71486 4.2183,-2.2754 9.6914,-5.32847 16.7453,-9.58412 -0.45062,-4.82554 -0.81499,-11.81956 -1.4115,-20.03492 -0.59651,-8.21537 -1.4249,-17.64292 -2.89392,-27.41616 -1.46902,-9.77325 -3.58595,-19.88611 -6.78782,-29.67826 -3.20187,-9.79215 -7.49236,-19.27277 -13.24407,-27.97523 -5.75171,-8.70245 -12.95878,-16.65441 -21.94561,-23.29935 -8.98683,-6.64494 -19.74493,-12.00152 -32.67095,-15.02636 -6.463,-1.51242 -13.47015,-2.43076 -21.08365,-2.58842 -7.6135,-0.15766 -15.83372,0.4509 -24.72773,1.95414 -8.89401,1.50324 -18.46229,3.91186 -28.77005,7.19653 -10.30776,3.28467 -21.35513,7.46367 -33.20019,12.13525 -0.087,9.20915 -0.11455,13.79852 -0.15941,16.1892 -0.0448,2.39067 -0.0947,2.56698 -0.14554,2.83839 -0.0509,0.2714 -0.10283,0.63812 -0.14426,3.39595 -0.0414,2.75783 -0.0724,7.90973 -0.057,17.69578 0,0 0,0 0,0 z m 3.0705,66.46542 c 18.37344,-5.66774 37.05617,-4.76746 51.70209,6.11496 7.32295,5.44121 13.62522,13.36242 18.42603,24.20827 2.40041,5.42293 4.42705,11.57868 6.04621,18.53284 1.61917,6.95416 2.82937,14.70727 3.63628,23.32694 7.58907,-3.68316 7.56264,-3.49475 10.05174,-4.52707 1.24456,-0.51616 3.11646,-1.33808 6.86765,-3.11042 3.75119,-1.77235 9.38353,-4.48862 18.11605,-8.8399 -0.47674,-4.74654 -1.50431,-16.16737 -4.152,-29.6533 -2.6477,-13.48594 -6.934,-29.01347 -14.46967,-42.44248 -7.53567,-13.42901 -18.33654,-24.82992 -34.00685,-30.04287 -7.83515,-2.60647 -16.88681,-3.64255 -27.37705,-2.6704 -5.24512,0.48608 -10.85028,1.4716 -16.84674,2.96849 -5.99645,1.4969 -12.38401,3.50745 -19.19822,5.98084 0.0323,12.43701 0.31734,15.73482 0.60647,19.29018 0.28913,3.55537 0.58089,7.35247 0.59801,20.86392 0,0 0,0 0,0 z m 58.14468,47.94738 c 0.49899,9.82982 -2.21653,20.3163 -7.13856,29.34767 -4.92202,9.03136 -12.08261,16.61111 -20.43001,20.40546 -8.3474,3.79435 -16.27407,3.02689 -22.10156,-1.34839 -5.82748,-4.37528 -9.52229,-12.33853 -9.73079,-22.51516 -0.20849,-10.17662 3.04647,-20.58755 8.29846,-29.26899 5.252,-8.68145 12.50525,-15.67745 20.5655,-19.13504 8.06024,-3.45759 15.42572,-2.719 20.92013,1.31567 5.49442,4.03466 9.11783,11.36896 9.61683,21.19878 z"
       style="fill:#ff9700;fill-opacity:1;stroke:none;display:inline;filter:url(#filter4083)"
       id="path4081" />
    <path
       id="path4057-9"
       style="fill:#ffb900;fill-opacity:1;stroke:none;display:inline"
       d="m 374.44913,605.07699 c 6.49072,-2.37924 12.72864,-4.52176 18.72432,-6.34777 5.99569,-1.82601 11.74911,-3.33661 17.26992,-4.49748 11.04162,-2.32174 21.15335,-3.22869 30.40692,-2.77003 18.50714,0.91733 33.59916,7.22634 45.68734,17.23184 6.04409,5.00275 11.3322,10.93357 15.90507,17.6601 4.57287,6.72654 8.42881,14.25142 11.62848,22.49412 3.19967,8.2427 5.74194,17.20674 7.72974,26.8152 1.98779,9.60847 3.42135,19.86394 4.45353,30.64613 6.10318,-3.22485 7.82284,-3.9751 7.86441,-3.69226 0.0416,0.28283 -1.59787,1.57407 -2.22721,2.31936 -0.62935,0.74529 -0.24673,0.96164 3.83253,-0.94677 2.03963,-0.9542 5.00311,-2.43946 9.2214,-4.71486 4.2183,-2.2754 9.6914,-5.32847 16.7453,-9.58412 -0.45062,-4.82554 -0.81499,-11.81956 -1.4115,-20.03492 -0.59651,-8.21537 -1.4249,-17.64292 -2.89392,-27.41616 -1.46902,-9.77325 -3.58595,-19.88611 -6.78782,-29.67826 -3.20187,-9.79215 -7.49236,-19.27277 -13.24407,-27.97523 -5.75171,-8.70245 -12.95878,-16.65441 -21.94561,-23.29935 -8.98683,-6.64494 -19.74493,-12.00152 -32.67095,-15.02636 -6.463,-1.51242 -13.47015,-2.43076 -21.08365,-2.58842 -7.6135,-0.15766 -15.83372,0.4509 -24.72773,1.95414 -8.89401,1.50324 -18.46229,3.91186 -28.77005,7.19653 -10.30776,3.28467 -21.35513,7.46367 -33.20019,12.13525 -0.087,9.20915 -0.11455,13.79852 -0.15941,16.1892 -0.0448,2.39067 -0.0947,2.56698 -0.14554,2.83839 -0.0509,0.2714 -0.10283,0.63812 -0.14426,3.39595 -0.0414,2.75783 -0.0724,7.90973 -0.057,17.69578 0,0 0,0 0,0 z m 3.0705,66.46542 c 18.37344,-5.66774 37.05617,-4.76746 51.70209,6.11496 7.32295,5.44121 13.62522,13.36242 18.42603,24.20827 2.40041,5.42293 4.42705,11.57868 6.04621,18.53284 1.61917,6.95416 2.82937,14.70727 3.63628,23.32694 7.58907,-3.68316 7.56264,-3.49475 10.05174,-4.52707 1.24456,-0.51616 3.11646,-1.33808 6.86765,-3.11042 3.75119,-1.77235 9.38353,-4.48862 18.11605,-8.8399 -0.47674,-4.74654 -1.50431,-16.16737 -4.152,-29.6533 -2.6477,-13.48594 -6.934,-29.01347 -14.46967,-42.44248 -7.53567,-13.42901 -18.33654,-24.82992 -34.00685,-30.04287 -7.83515,-2.60647 -16.88681,-3.64255 -27.37705,-2.6704 -5.24512,0.48608 -10.85028,1.4716 -16.84674,2.96849 -5.99645,1.4969 -12.38401,3.50745 -19.19822,5.98084 0.0323,12.43701 0.31734,15.73482 0.60647,19.29018 0.28913,3.55537 0.58089,7.35247 0.59801,20.86392 0,0 0,0 0,0 z m 58.14468,47.94738 c 0.49899,9.82982 -2.21653,20.3163 -7.13856,29.34767 -4.92202,9.03136 -12.08261,16.61111 -20.43001,20.40546 -8.3474,3.79435 -16.27407,3.02689 -22.10156,-1.34839 -5.82748,-4.37528 -9.52229,-12.33853 -9.73079,-22.51516 -0.20849,-10.17662 3.04647,-20.58755 8.29846,-29.26899 5.252,-8.68145 12.50525,-15.67745 20.5655,-19.13504 8.06024,-3.45759 15.42572,-2.719 20.92013,1.31567 5.49442,4.03466 9.11783,11.36896 9.61683,21.19878 z"
       inkscape:path-effect="#path-effect4079"
       inkscape:original-d="m 374.83892,605.29698 c 133.22316,0 182.49067,82.86536 182.49067,171.38715 30.29362,0 -26.70421,3.17806 43.74164,3.17806 0,-39.54109 18.70103,-214.28572 -225.71417,-214.28572 0,36.22271 -0.51814,0.51565 -0.51814,39.72051 z m 3.73251,67.77949 c 46.02878,2.08157 93.57143,36.4771 93.57143,106.42857 18.50212,0 -0.16835,0.71429 42.85714,0.71429 0,-19.39764 0.95167,-147.85715 -137.85714,-147.85715 0,24.99367 1.42857,13.66294 1.42857,40.71429 z m 70,72.49998 c 0,19.9217 -16.14973,36.07143 -36.07143,36.07143 -19.9217,0 -36.07143,-16.14973 -36.07143,-36.07143 0,-19.9217 16.14973,-36.07143 36.07143,-36.07143 19.9217,0 36.07143,16.14973 36.07143,36.07143 z" />
  </g>
</svg>
