<?xml version="1.0" encoding="UTF-8" standalone="no"?>
<!-- Created with Inkscape (http://www.inkscape.org/) -->

<svg
   xmlns:dc="http://purl.org/dc/elements/1.1/"
   xmlns:cc="http://creativecommons.org/ns#"
   xmlns:rdf="http://www.w3.org/1999/02/22-rdf-syntax-ns#"
   xmlns:svg="http://www.w3.org/2000/svg"
   xmlns="http://www.w3.org/2000/svg"
   xmlns:sodipodi="http://sodipodi.sourceforge.net/DTD/sodipodi-0.dtd"
   xmlns:inkscape="http://www.inkscape.org/namespaces/inkscape"
   width="744.09448819"
   height="1052.3622047"
   id="svg2"
   version="1.1"
   inkscape:version="0.48.4 r9939"
   sodipodi:docname="Themeo.svg"
   inkscape:export-filename="C:\Projects-Personal\Art\Themeo.png"
   inkscape:export-xdpi="66.139824"
   inkscape:export-ydpi="66.139824">
  <defs
     id="defs4" />
  <sodipodi:namedview
     id="base"
     pagecolor="#ffffff"
     bordercolor="#666666"
     borderopacity="1.0"
     inkscape:pageopacity="0.0"
     inkscape:pageshadow="2"
     inkscape:zoom="0.7"
     inkscape:cx="429.98604"
     inkscape:cy="728.18781"
     inkscape:document-units="px"
     inkscape:current-layer="layer1"
     showgrid="false"
     inkscape:window-width="1325"
     inkscape:window-height="796"
     inkscape:window-x="270"
     inkscape:window-y="80"
     inkscape:window-maximized="0" />
  <metadata
     id="metadata7">
    <rdf:RDF>
      <cc:Work
         rdf:about="">
        <dc:format>image/svg+xml</dc:format>
        <dc:type
           rdf:resource="http://purl.org/dc/dcmitype/StillImage" />
        <dc:title></dc:title>
      </cc:Work>
    </rdf:RDF>
  </metadata>
  <g
     inkscape:label="Layer 1"
     inkscape:groupmode="layer"
     id="layer1">
    <rect
       style="fill:#0000ff;fill-opacity:1"
       id="rect2985"
       width="210.65581"
       height="210.65581"
       x="25.882517"
       y="21.064514"
       rx="13.06633"
       ry="13.06633" />
    <path
       transform="matrix(0.37814595,0,0,0.37814595,126.19585,-9.8671149)"
       d="m -20,212.36218 a 81.428574,81.428574 0 1 1 -162.85715,0 81.428574,81.428574 0 1 1 162.85715,0 z"
       sodipodi:ry="81.428574"
       sodipodi:rx="81.428574"
       sodipodi:cy="212.36218"
       sodipodi:cx="-101.42857"
       id="path3759"
       style="fill:#ffffff;fill-opacity:1"
       sodipodi:type="arc" />
    <path
       style="fill:#ff7d00;fill-opacity:1"
       d="m 87.838373,46.057033 c -3.340528,0 -6.521791,0.673649 -9.420656,1.889746 3.674922,0.778994 6.426999,4.044896 6.426999,7.95189 0,4.487668 -3.632618,8.120297 -8.120286,8.120297 -4.487668,0 -8.129655,-3.632629 -8.129655,-8.120297 0,-0.140237 0.0022,-0.282485 0.0097,-0.42098 -3.217221,4.130783 -5.135987,9.317517 -5.135987,14.958928 0,13.462993 10.907234,24.379574 24.370227,24.379574 13.462994,0 24.379574,-10.916581 24.379574,-24.379574 0,-13.462992 -10.91658,-24.379584 -24.379574,-24.379584 z"
       id="path2987"
       inkscape:connector-curvature="0" />
    <path
       sodipodi:type="arc"
       style="fill:#ffffff;fill-opacity:1"
       id="path3764"
       sodipodi:cx="-101.42857"
       sodipodi:cy="212.36218"
       sodipodi:rx="81.428574"
       sodipodi:ry="81.428574"
       d="m -20,212.36218 a 81.428574,81.428574 0 1 1 -162.85715,0 81.428574,81.428574 0 1 1 162.85715,0 z"
       transform="matrix(0.37814595,0,0,0.37814595,206.15541,-9.8671149)" />
    <path
       inkscape:connector-curvature="0"
       id="path3766"
       d="m 167.79795,46.057033 c -3.34053,0 -6.5218,0.673649 -9.42067,1.889746 3.67492,0.778994 6.42701,4.044896 6.42701,7.95189 0,4.487668 -3.63263,8.120297 -8.1203,8.120297 -4.48766,0 -8.12964,-3.632629 -8.12964,-8.120297 0,-0.140237 0.002,-0.282485 0.01,-0.42098 -3.21722,4.130783 -5.13599,9.317517 -5.13599,14.958928 0,13.462993 10.90723,24.379574 24.37023,24.379574 13.46299,0 24.37957,-10.916581 24.37957,-24.379574 0,-13.462992 -10.91658,-24.379584 -24.37957,-24.379584 z"
       style="fill:#ff7d00;fill-opacity:1" />
    <rect
       ry="13.06633"
       rx="13.06633"
       y="255.09372"
       x="27.816616"
       height="210.65581"
       width="210.65581"
       id="rect3772"
       style="fill:#0000ff;fill-opacity:1" />
    <path
       style="fill:#ffffff;fill-opacity:1"
       d="m 87.760564,284.16198 c -16.976993,0 -30.744618,13.76761 -30.744618,30.74462 0,0.87193 0.03646,1.73017 0.107657,2.58372 1.31047,-15.76965 14.528882,-28.16088 30.636961,-28.16088 16.108016,0 29.317426,12.39133 30.627986,28.16088 0.0712,-0.85362 0.10766,-1.71171 0.10766,-2.58372 0,-16.97701 -13.75864,-30.74462 -30.735646,-30.74462 z"
       id="path3774"
       inkscape:connector-curvature="0" />
    <path
       inkscape:connector-curvature="0"
       id="path3779"
       d="m 167.69874,284.16198 c -16.97699,0 -30.74461,13.76761 -30.74461,30.74462 0,0.87193 0.0365,1.73017 0.10765,2.58372 1.31047,-15.76965 14.52888,-28.16088 30.63696,-28.16088 16.10801,0 29.31743,12.39133 30.62799,28.16088 0.0712,-0.85362 0.10766,-1.71171 0.10766,-2.58372 0,-16.97701 -13.75864,-30.74462 -30.73565,-30.74462 z"
       style="fill:#ffffff;fill-opacity:1" />
    <rect
       ry="13.06633"
       rx="13.06633"
       y="21.064514"
       x="256.2251"
       height="210.65581"
       width="210.65581"
       id="rect3781"
       style="fill:#0000ff;fill-opacity:1" />
    <path
       sodipodi:type="arc"
       style="fill:#ffffff;fill-opacity:1"
       id="path3783"
       sodipodi:cx="-101.42857"
       sodipodi:cy="212.36218"
       sodipodi:rx="81.428574"
       sodipodi:ry="81.428574"
       d="m -20,212.36218 a 81.428574,81.428574 0 1 1 -162.85715,0 81.428574,81.428574 0 1 1 162.85715,0 z"
       transform="matrix(0.37814595,0,0,0.37814595,356.53844,-9.8671149)" />
    <path
       inkscape:connector-curvature="0"
       id="path3785"
       d="m 318.18096,52.510642 c -3.34053,0 -6.52179,0.67365 -9.42066,1.889746 3.67492,0.778994 6.427,4.044897 6.427,7.95189 0,4.487668 -3.63262,8.120297 -8.12028,8.120297 -4.48767,0 -8.12966,-3.632629 -8.12966,-8.120297 0,-0.140237 0.002,-0.282485 0.01,-0.42098 -3.21722,4.130784 -5.13599,9.317517 -5.13599,14.958929 0,13.462992 10.90724,24.379573 24.37023,24.379573 13.46299,0 24.37957,-10.916581 24.37957,-24.379573 0,-13.462993 -10.91658,-24.379585 -24.37957,-24.379585 z"
       style="fill:#ff7d00;fill-opacity:1" />
    <path
       transform="matrix(0.37814595,0,0,0.37814595,436.498,-9.8671149)"
       d="m -20,212.36218 a 81.428574,81.428574 0 1 1 -162.85715,0 81.428574,81.428574 0 1 1 162.85715,0 z"
       sodipodi:ry="81.428574"
       sodipodi:rx="81.428574"
       sodipodi:cy="212.36218"
       sodipodi:cx="-101.42857"
       id="path3787"
       style="fill:#ffffff;fill-opacity:1"
       sodipodi:type="arc" />
    <path
       style="fill:#ff7d00;fill-opacity:1"
       d="m 398.14053,52.510642 c -3.34053,0 -6.52179,0.67365 -9.42067,1.889746 3.67493,0.778994 6.42701,4.044897 6.42701,7.95189 0,4.487668 -3.63262,8.120297 -8.12029,8.120297 -4.48766,0 -8.12965,-3.632629 -8.12965,-8.120297 0,-0.140237 0.002,-0.282485 0.01,-0.42098 -3.21722,4.130784 -5.13598,9.317517 -5.13598,14.958929 0,13.462992 10.90722,24.379573 24.37022,24.379573 13.463,0 24.37958,-10.916581 24.37958,-24.379573 0,-13.462993 -10.91658,-24.379585 -24.37958,-24.379585 z"
       id="path3789"
       inkscape:connector-curvature="0" />
    <rect
       ry="13.06633"
       rx="13.06633"
       y="21.064514"
       x="490.69601"
       height="210.65581"
       width="210.65581"
       id="rect3791"
       style="fill:#0000ff;fill-opacity:1" />
    <path
       style="fill:#ffffff;fill-opacity:1"
       d="m 658.09285,53.128718 -51.39359,33.915061 c 5.47564,8.526571 15.02927,14.184491 25.91527,14.184491 17.00589,0 30.7891,-13.783201 30.7891,-30.789089 0,-6.420327 -1.94944,-12.376593 -5.31078,-17.310463 z"
       id="path3797"
       inkscape:connector-curvature="0" />
    <path
       style="fill:#ff7d00;fill-opacity:1"
       d="m 652.74845,56.691649 -40.70479,26.7892 c 4.32226,6.806148 11.91079,11.327429 20.57087,11.327429 13.463,0 24.3691,-10.906105 24.3691,-24.369097 0,-5.092684 -1.56412,-9.836633 -4.23518,-13.747532 z"
       id="path3799"
       inkscape:connector-curvature="0" />
    <path
       id="path3813"
       d="m 532.8765,53.128718 51.39359,33.915061 c -5.47564,8.526571 -15.02928,14.184491 -25.91528,14.184491 -17.00588,0 -30.78909,-13.783201 -30.78909,-30.789089 0,-6.420327 1.94944,-12.376593 5.31078,-17.310463 z"
       style="fill:#ffffff;fill-opacity:1"
       inkscape:connector-curvature="0" />
    <path
       id="path3815"
       d="m 538.22089,56.691649 40.7048,26.7892 c -4.32226,6.806148 -11.91079,11.327429 -20.57088,11.327429 -13.46299,0 -24.3691,-10.906105 -24.3691,-24.369097 0,-5.092684 1.56412,-9.836633 4.23518,-13.747532 z"
       style="fill:#ff7d00;fill-opacity:1"
       inkscape:connector-curvature="0" />
    <rect
       style="fill:#0000ff;fill-opacity:1"
       id="rect3827"
       width="210.65581"
       height="210.65581"
       x="492.65372"
       y="255.3996"
       rx="13.06633"
       ry="13.06633" />
    <path
       transform="matrix(0.37814595,0,0,0.37814595,592.96706,224.46797)"
       d="m -20,212.36218 a 81.428574,81.428574 0 1 1 -162.85715,0 81.428574,81.428574 0 1 1 162.85715,0 z"
       sodipodi:ry="81.428574"
       sodipodi:rx="81.428574"
       sodipodi:cy="212.36218"
       sodipodi:cx="-101.42857"
       id="path3829"
       style="fill:#ffffff;fill-opacity:1"
       sodipodi:type="arc" />
    <path
       style="fill:#ff7d00;fill-opacity:1"
       d="m 561.10916,280.84573 c -3.3405,0 -6.5218,0.67365 -9.4207,1.88974 3.675,0.779 6.427,4.0449 6.427,7.95189 0,4.48767 -3.6326,8.1203 -8.1202,8.1203 -4.4877,0 -8.1297,-3.63263 -8.1297,-8.1203 0,-0.14023 0,-0.28248 0.01,-0.42098 -3.2172,4.13079 -5.136,9.31752 -5.136,14.95893 0,13.46299 10.9073,24.37958 24.3702,24.37958 13.463,0 24.3796,-10.91659 24.3796,-24.37958 0,-13.46299 -10.9166,-24.37958 -24.3796,-24.37958 z"
       id="path3831"
       inkscape:connector-curvature="0" />
    <path
       sodipodi:type="arc"
       style="fill:#ffffff;fill-opacity:1"
       id="path3833"
       sodipodi:cx="-101.42857"
       sodipodi:cy="212.36218"
       sodipodi:rx="81.428574"
       sodipodi:ry="81.428574"
       d="m -20,212.36218 a 81.428574,81.428574 0 1 1 -162.85715,0 81.428574,81.428574 0 1 1 162.85715,0 z"
       transform="matrix(0.37814595,0,0,0.37814595,672.92656,224.46797)" />
    <path
       inkscape:connector-curvature="0"
       id="path3835"
       d="m 641.06876,280.84573 c -3.3406,0 -6.5218,0.67365 -9.4207,1.88974 3.6749,0.779 6.427,4.0449 6.427,7.95189 0,4.48767 -3.6326,8.1203 -8.1203,8.1203 -4.4876,0 -8.1296,-3.63263 -8.1296,-8.1203 0,-0.14023 0,-0.28248 0.01,-0.42098 -3.2172,4.13079 -5.136,9.31752 -5.136,14.95893 0,13.46299 10.9072,24.37958 24.3702,24.37958 13.463,0 24.3796,-10.91659 24.3796,-24.37958 0,-13.46299 -10.9166,-24.37958 -24.3796,-24.37958 z"
       style="fill:#ff7d00;fill-opacity:1" />
    <rect
       style="fill:#0000ff;fill-opacity:1"
       id="rect3837"
       width="210.65581"
       height="210.65581"
       x="254.98174"
       y="255.41991"
       rx="13.06633"
       ry="13.06633" />
    <path
       inkscape:connector-curvature="0"
       id="path3839"
       d="m 376.29575,287.48411 51.39359,33.91506 c -5.47564,8.52657 -15.02927,14.18449 -25.91527,14.18449 -17.00589,0 -30.7891,-13.7832 -30.7891,-30.78909 0,-6.42033 1.94944,-12.37659 5.31078,-17.31046 z"
       style="fill:#ffffff;fill-opacity:1" />
    <path
       inkscape:connector-curvature="0"
       id="path3841"
       d="m 381.64015,291.04704 40.70479,26.7892 c -4.32226,6.80615 -11.91079,11.32743 -20.57087,11.32743 -13.463,0 -24.3691,-10.90611 -24.3691,-24.3691 0,-5.09268 1.56412,-9.83663 4.23518,-13.74753 z"
       style="fill:#ff7d00;fill-opacity:1" />
    <path
       inkscape:connector-curvature="0"
       style="fill:#ffffff;fill-opacity:1"
       d="m 343.24502,287.48411 -51.39359,33.91506 c 5.47564,8.52657 15.02928,14.18449 25.91528,14.18449 17.00588,0 30.78909,-13.7832 30.78909,-30.78909 0,-6.42033 -1.94944,-12.37659 -5.31078,-17.31046 z"
       id="path3843" />
    <path
       inkscape:connector-curvature="0"
       style="fill:#ff7d00;fill-opacity:1"
       d="m 337.90063,291.04704 -40.7048,26.7892 c 4.32226,6.80615 11.91079,11.32743 20.57088,11.32743 13.46299,0 24.3691,-10.90611 24.3691,-24.3691 0,-5.09268 -1.56412,-9.83663 -4.23518,-13.74753 z"
       id="path3845" />
    <rect
       ry="13.06633"
       rx="13.06633"
       y="481.06451"
       x="25.882517"
       height="210.65581"
       width="210.65581"
       id="rect3847"
       style="fill:#0000ff;fill-opacity:1" />
    <path
       sodipodi:type="arc"
       style="fill:#ffffff;fill-opacity:1"
       id="path3849"
       sodipodi:cx="-101.42857"
       sodipodi:cy="212.36218"
       sodipodi:rx="81.428574"
       sodipodi:ry="81.428574"
       d="m -20,212.36218 a 81.428574,81.428574 0 1 1 -162.85715,0 81.428574,81.428574 0 1 1 162.85715,0 z"
       transform="matrix(0.37814595,0,0,0.37814595,126.19585,450.13289)" />
    <path
       inkscape:connector-curvature="0"
       id="path3851"
       d="m 93.838373,509.60302 c -3.340528,0 -6.521791,0.67365 -9.420656,1.88975 3.674922,0.77899 6.426999,4.0449 6.426999,7.95189 0,4.48767 -3.632618,8.1203 -8.120286,8.1203 -4.487668,0 -8.129655,-3.63263 -8.129655,-8.1203 0,-0.14024 0.0022,-0.28249 0.0097,-0.42098 -3.217221,4.13078 -5.135987,9.31752 -5.135987,14.95893 0,13.46299 10.907234,24.37957 24.370227,24.37957 13.462995,0 24.379575,-10.91658 24.379575,-24.37957 0,-13.46299 -10.91658,-24.37959 -24.379575,-24.37959 z"
       style="fill:#ff7d00;fill-opacity:1" />
    <path
       transform="matrix(0.37814595,0,0,0.37814595,206.15541,450.13289)"
       d="m -20,212.36218 a 81.428574,81.428574 0 1 1 -162.85715,0 81.428574,81.428574 0 1 1 162.85715,0 z"
       sodipodi:ry="81.428574"
       sodipodi:rx="81.428574"
       sodipodi:cy="212.36218"
       sodipodi:cx="-101.42857"
       id="path3853"
       style="fill:#ffffff;fill-opacity:1"
       sodipodi:type="arc" />
    <path
       style="fill:#ff7d00;fill-opacity:1"
       d="m 161.79795,509.60302 c -3.34053,0 -6.5218,0.67365 -9.42067,1.88975 3.67492,0.77899 6.42701,4.0449 6.42701,7.95189 0,4.48767 -3.63263,8.1203 -8.1203,8.1203 -4.48766,0 -8.12964,-3.63263 -8.12964,-8.1203 0,-0.14024 0.002,-0.28249 0.01,-0.42098 -3.21722,4.13078 -5.13599,9.31752 -5.13599,14.95893 0,13.46299 10.90723,24.37957 24.37023,24.37957 13.46299,0 24.37957,-10.91658 24.37957,-24.37957 0,-13.46299 -10.91658,-24.37959 -24.37957,-24.37959 z"
       id="path3855"
       inkscape:connector-curvature="0" />
    <rect
       ry="13.06633"
       rx="13.06633"
       y="-468.52676"
       x="482.16321"
       height="210.65581"
       width="210.65581"
       id="rect3857"
       style="fill:#0000ff;fill-opacity:1"
       transform="matrix(0,1,-1,0,0,0)" />
    <path
       sodipodi:type="arc"
       style="fill:#ffffff;fill-opacity:1"
       id="path3859"
       sodipodi:cx="-101.42857"
       sodipodi:cy="212.36218"
       sodipodi:rx="81.428574"
       sodipodi:ry="81.428574"
       d="m -20,212.36218 a 81.428574,81.428574 0 1 1 -162.85715,0 81.428574,81.428574 0 1 1 162.85715,0 z"
       transform="matrix(0,0.37814595,-0.37814595,0,499.45836,582.47655)" />
    <path
       inkscape:connector-curvature="0"
       id="path3861"
       d="m 443.53422,544.11907 c 0,-3.34052 -0.67365,-6.52179 -1.88975,-9.42065 -0.77899,3.67492 -4.0449,6.427 -7.95189,6.427 -4.48767,0 -8.1203,-3.63262 -8.1203,-8.12029 0,-4.48767 3.63263,-8.12965 8.1203,-8.12965 0.14024,0 0.28249,0.002 0.42098,0.01 -4.13078,-3.21723 -9.31752,-5.13599 -14.95893,-5.13599 -13.46299,0 -24.37957,10.90723 -24.37957,24.37023 0,13.46299 10.91658,24.37957 24.37957,24.37957 13.46299,0 24.37959,-10.91658 24.37959,-24.37957 z"
       style="fill:#ff7d00;fill-opacity:1" />
    <path
       transform="matrix(0,0.37814595,-0.37814595,0,499.45836,662.43611)"
       d="m -20,212.36218 a 81.428574,81.428574 0 1 1 -162.85715,0 81.428574,81.428574 0 1 1 162.85715,0 z"
       sodipodi:ry="81.428574"
       sodipodi:rx="81.428574"
       sodipodi:cy="212.36218"
       sodipodi:cx="-101.42857"
       id="path3863"
       style="fill:#ffffff;fill-opacity:1"
       sodipodi:type="arc" />
    <path
       style="fill:#ff7d00;fill-opacity:1"
       d="m 443.53422,624.07865 c 0,-3.34053 -0.67365,-6.5218 -1.88975,-9.42067 -0.77899,3.67492 -4.0449,6.42701 -7.95189,6.42701 -4.48767,0 -8.1203,-3.63263 -8.1203,-8.1203 0,-4.48766 3.63263,-8.12964 8.1203,-8.12964 0.14024,0 0.28249,0.002 0.42098,0.01 -4.13078,-3.21722 -9.31752,-5.13599 -14.95893,-5.13599 -13.46299,0 -24.37957,10.90723 -24.37957,24.37023 0,13.46299 10.91658,24.37957 24.37957,24.37957 13.46299,0 24.37959,-10.91658 24.37959,-24.37957 z"
       id="path3865"
       inkscape:connector-curvature="0" />
    <rect
       ry="13.06633"
       rx="13.06633"
       y="480.68393"
       x="495.60345"
       height="210.65581"
       width="210.65581"
       id="rect3867"
       style="fill:#0000ff;fill-opacity:1" />
    <rect
       style="fill:#ffffff;fill-opacity:1"
       id="rect3881"
       width="56.568542"
       height="7.0710678"
       x="606"
       y="528.59808"
       rx="13.06633"
       ry="7.0710678" />
    <rect
       ry="7.0710678"
       rx="13.06633"
       y="740.3576"
       x="310.54681"
       height="7.0710678"
       width="56.568542"
       id="rect3883"
       style="fill:#ffffff;fill-opacity:1"
       transform="matrix(0.89806271,-0.43986745,0.43986745,0.89806271,0,0)" />
    <rect
       transform="matrix(0.89806271,0.43986745,0.43986745,-0.89806271,0,0)"
       style="fill:#ffffff;fill-opacity:1"
       id="rect3885"
       width="56.568542"
       height="7.0710678"
       x="777.80353"
       y="-213.62492"
       rx="13.06633"
       ry="7.0710678" />
    <path
       sodipodi:type="arc"
       style="fill:#ffffff;fill-opacity:1"
       id="path3887"
       sodipodi:cx="-101.42857"
       sodipodi:cy="212.36218"
       sodipodi:rx="81.428574"
       sodipodi:ry="81.428574"
       d="m -20,212.36218 a 81.428574,81.428574 0 1 1 -162.85715,0 81.428574,81.428574 0 1 1 162.85715,0 z"
       transform="matrix(0.37814595,0,0,0.37814595,596.14669,450.6399)" />
    <path
       inkscape:connector-curvature="0"
       id="path3889"
       d="m 557.78921,506.56405 c -3.34053,0 -6.52179,0.67365 -9.42065,1.88974 3.67492,0.779 6.42699,4.0449 6.42699,7.95189 0,4.48767 -3.63261,8.1203 -8.12028,8.1203 -4.48767,0 -8.12966,-3.63263 -8.12966,-8.1203 0,-0.14023 0.002,-0.28248 0.01,-0.42098 -3.21722,4.13079 -5.13598,9.31752 -5.13598,14.95893 0,13.463 10.90723,24.37958 24.37022,24.37958 13.463,0 24.37958,-10.91658 24.37958,-24.37958 0,-13.46299 -10.91658,-24.37958 -24.37958,-24.37958 z"
       style="fill:#ff7d00;fill-opacity:1" />
  </g>
</svg>
