<?xml version="1.0" encoding="UTF-8" standalone="no"?>
<!-- Created with Inkscape (http://www.inkscape.org/) -->

<svg
   xmlns:dc="http://purl.org/dc/elements/1.1/"
   xmlns:cc="http://creativecommons.org/ns#"
   xmlns:rdf="http://www.w3.org/1999/02/22-rdf-syntax-ns#"
   xmlns:svg="http://www.w3.org/2000/svg"
   xmlns="http://www.w3.org/2000/svg"
   xmlns:sodipodi="http://sodipodi.sourceforge.net/DTD/sodipodi-0.dtd"
   xmlns:inkscape="http://www.inkscape.org/namespaces/inkscape"
   width="1500"
   height="1000"
   id="svg2"
   version="1.1"
   inkscape:version="0.48.4 r9939"
   sodipodi:docname="Helicopter.svg"
   inkscape:export-filename="C:\Users\JoeDono\Dropbox\Inkscape Pictures\Helicopter.png"
   inkscape:export-xdpi="90"
   inkscape:export-ydpi="90">
  <defs
     id="defs4" />
  <sodipodi:namedview
     id="base"
     pagecolor="#ffffff"
     bordercolor="#666666"
     borderopacity="1.0"
     inkscape:pageopacity="0.0"
     inkscape:pageshadow="2"
     inkscape:zoom="0.49497475"
     inkscape:cx="796.37719"
     inkscape:cy="343.64255"
     inkscape:document-units="px"
     inkscape:current-layer="layer1"
     showgrid="true"
     inkscape:window-width="1104"
     inkscape:window-height="975"
     inkscape:window-x="782"
     inkscape:window-y="18"
     inkscape:window-maximized="0" />
  <metadata
     id="metadata7">
    <rdf:RDF>
      <cc:Work
         rdf:about="">
        <dc:format>image/svg+xml</dc:format>
        <dc:type
           rdf:resource="http://purl.org/dc/dcmitype/StillImage" />
        <dc:title></dc:title>
      </cc:Work>
    </rdf:RDF>
  </metadata>
  <g
     inkscape:label="Layer 1"
     inkscape:groupmode="layer"
     id="layer1"
     transform="translate(0,-52.362183)">
    <g
       id="g3789"
       transform="translate(78.571429,84)"
       style="fill:#1d00fa;fill-opacity:1" />
    <path
       style="fill:#5f8ab9;fill-opacity:1;stroke:#000000;stroke-width:4.51083326000000010;stroke-linecap:butt;stroke-linejoin:miter;stroke-miterlimit:4;stroke-opacity:1"
       d="m 680.19924,645.77858 0,-0.59375 242.75,0 74.5625,-51.4375 142.24996,-22.25 0,-46.53125 -0.5313,0 44.25,-155.9375 -78.25,0 -44.2812,155.9375 -15,0 -122.99996,-106.5625 -242.75,0 0,-0.59375 -91.71875,17.125 -94.60714,85.24331 -68.76786,38.25669 0,58.875 71.375,28.46875 0.25,0.0937 0,-0.0937 86.74801,-0.41038 z"
       id="rect3798"
       inkscape:connector-curvature="0"
       sodipodi:nodetypes="ccccccccccccccccccccccc" />
    <path
       style="fill:#5f8ab9;fill-opacity:1;stroke:#000000;stroke-width:5;stroke-linecap:butt;stroke-linejoin:miter;stroke-miterlimit:4;stroke-opacity:1"
       d="m 716.63464,568.53828 c 33.13593,-10.96514 175.76654,20 175.76654,20 l 0,2.22336 -199.50512,0 c 0,0 -9.39735,-11.25822 23.73858,-22.22336 z"
       id="rect3794"
       inkscape:connector-curvature="0"
       sodipodi:nodetypes="zcccz" />
    <path
       style="fill:#5f8ab9;fill-opacity:1;stroke:#000000;stroke-width:5;stroke-linecap:butt;stroke-linejoin:miter;stroke-miterlimit:4;stroke-opacity:1"
       d="m 1092.4904,526.85442 101.0153,0 0,11.2132 -101.0153,10 z"
       id="rect3800"
       inkscape:connector-curvature="0"
       sodipodi:nodetypes="ccccc" />
    <path
       style="fill:#5f8ab9;stroke:#000000;stroke-width:3.65784882999999980;stroke-linecap:butt;stroke-linejoin:miter;stroke-miterlimit:4;stroke-opacity:1;fill-opacity:1"
       d="m 723.02271,303.52551 39.74604,0 0,25.41928 -39.74604,0 z"
       id="rect3802" />
    <path
       style="fill:#5f8ab9;stroke:#000000;stroke-width:5;stroke-linecap:butt;stroke-linejoin:miter;stroke-miterlimit:4;stroke-opacity:1;fill-opacity:1"
       d="m 736.5578,330.16492 15.03904,0 0,68.12367 -15.03904,0 z"
       id="rect3804" />
    <path
       style="fill:#5f8ab9;stroke:#000000;stroke-width:5;stroke-linecap:butt;stroke-linejoin:miter;stroke-miterlimit:4;stroke-opacity:1;fill-opacity:1"
       d="m 700.03442,350.50034 90.23426,0 0,17.28511 -90.23426,0 z"
       id="rect3806" />
    <path
       style="fill:#5f8ab9;stroke:#000000;stroke-width:5;stroke-linecap:butt;stroke-linejoin:miter;stroke-miterlimit:4;stroke-opacity:1;fill-opacity:1"
       d="m 744.61446,376.93637 33.83785,6.13372 -33.83785,5.05076 -33.83785,-5.05076 z"
       id="rect3808"
       inkscape:connector-curvature="0"
       sodipodi:nodetypes="ccccc" />
    <path
       style="fill:#5f8ab9;stroke:#000000;stroke-width:5;stroke-linecap:butt;stroke-linejoin:miter;stroke-miterlimit:4;stroke-opacity:1;fill-opacity:1"
       d="m 684.69574,399.02173 119.83743,0 0,17.85236 -119.83743,0 z"
       id="rect3810"
       inkscape:connector-curvature="0"
       sodipodi:nodetypes="ccccc" />
    <path
       style="fill:#5f8ab9;stroke:#000000;stroke-width:5;stroke-linecap:butt;stroke-linejoin:miter;stroke-miterlimit:4;stroke-opacity:1;fill-opacity:1"
       d="m 750.24677,308.883 113.35626,0 0,6.15497 -113.35626,0 z"
       id="rect3812" />
    <path
       style="fill:#5f8ab9;stroke:#000000;stroke-width:5;stroke-linecap:butt;stroke-linejoin:miter;stroke-miterlimit:4;stroke-opacity:1;fill-opacity:1"
       d="m 622.27502,308.70419 113.35627,0 0,6.15498 -113.35627,0 z"
       id="rect3814" />
    <path
       style="fill:#5f8ab9;stroke:#000000;stroke-width:5;stroke-linecap:butt;stroke-linejoin:miter;stroke-miterlimit:4;stroke-opacity:1;fill-opacity:1"
       d="m 793.44463,481.33664 14.14214,0 c 11.19249,0 20.20305,9.01056 20.20305,20.20305 l 0,12.12183 c 0,11.19249 -9.01056,20.20305 -20.20305,20.20305 l -14.14214,0 c -11.19249,0 -20.20305,-9.01056 -20.20305,-20.20305 l 0,-12.12183 c 0,-11.19249 9.01056,-20.20305 20.20305,-20.20305 z"
       id="rect3820" />
    <path
       style="fill:#5f8ab9;stroke:#000000;stroke-width:5;stroke-linecap:butt;stroke-linejoin:miter;stroke-miterlimit:4;stroke-opacity:1;fill-opacity:1"
       d="m 833.89134,469.2757 185.86806,0 c 11.1925,0 20.203,9.01056 20.203,20.20305 l 0,34.34518 c 0,11.19249 -9.0105,20.20305 -20.203,20.20305 l -185.86806,0 c -11.19249,0 -20.20305,-9.01056 -20.20305,-20.20305 l 0,-34.34518 c 0,-11.19249 9.01056,-20.20305 20.20305,-20.20305 z"
       id="rect3816" />
    <path
       style="fill:#5f8ab9;fill-opacity:1;stroke:#000000;stroke-width:5;stroke-linecap:butt;stroke-linejoin:miter;stroke-miterlimit:4;stroke-opacity:1"
       d="m 551.21111,588.88963 200.0102,6.07143 c 11.18734,0.3396 20.20305,9.01056 20.20305,20.20305 l 0,26.26397 c 0,11.19249 -9.01999,19.74377 -20.20305,20.20305 l -200.0102,8.21429 c -11.18306,0.45928 -54.04316,-23.79084 -54.04316,-34.98333 l 0,-11.61676 c 0,-11.19249 42.85582,-34.6953 54.04316,-34.3557 z"
       id="rect3822"
       inkscape:connector-curvature="0"
       sodipodi:nodetypes="sssssssss" />
    <path
       style="fill:#5f8ab9;stroke:#000000;stroke-width:5.77619742999999990;stroke-linecap:butt;stroke-linejoin:miter;stroke-miterlimit:4;stroke-opacity:1;fill-opacity:1"
       d="m 1086.3075,380.77039 24.5921,0 c 15.1378,0 27.3246,8.89118 27.3246,19.93539 l 0,17.94187 c 0,11.04421 -12.1868,19.93539 -27.3246,19.93539 l -24.5921,0 c -15.1378,0 -27.3246,-8.89118 -27.3246,-19.93539 l 0,-17.94187 c 0,-11.04421 12.1868,-19.93539 27.3246,-19.93539 z"
       id="rect3824"
       inkscape:connector-curvature="0" />
    <path
       style="fill:#5f8ab9;stroke:#000000;stroke-width:5;stroke-linecap:butt;stroke-linejoin:miter;stroke-miterlimit:4;stroke-opacity:1;fill-opacity:1"
       d="m 852.35836,301.85437 402.04074,0 c 5.5962,0 10.1015,4.50528 10.1015,10.10153 0,5.59624 -4.5053,10.10152 -10.1015,10.10152 l -402.04074,0 c -5.59624,0 -10.10152,-4.50528 -10.10152,-10.10152 0,-5.59625 4.50528,-10.10153 10.10152,-10.10153 z"
       id="rect3852" />
    <path
       style="fill:#5f8ab9;stroke:#000000;stroke-width:5;stroke-linecap:butt;stroke-linejoin:miter;stroke-miterlimit:4;stroke-opacity:1;fill-opacity:1"
       d="m 232.35838,301.85437 402.04072,0 c 5.59625,0 10.10153,4.50528 10.10153,10.10153 0,5.59624 -4.50528,10.10152 -10.10153,10.10152 l -402.04072,0 c -5.59625,0 -10.10153,-4.50528 -10.10153,-10.10152 0,-5.59625 4.50528,-10.10153 10.10153,-10.10153 z"
       id="rect3854" />
    <path
       sodipodi:type="arc"
       style="fill:#5f8ab9;fill-opacity:1;stroke:#000000;stroke-width:5;stroke-linecap:butt;stroke-linejoin:miter;stroke-miterlimit:4;stroke-opacity:1;stroke-dasharray:none"
       id="path3880"
       sodipodi:cx="253.54829"
       sodipodi:cy="631.29431"
       sodipodi:rx="13.131983"
       sodipodi:ry="13.131983"
       d="m 266.68028,631.29431 c 0,7.2526 -5.87939,13.13198 -13.13199,13.13198 -7.25259,0 -13.13198,-5.87938 -13.13198,-13.13198 0,-7.25259 5.87939,-13.13198 13.13198,-13.13198 7.2526,0 13.13199,5.87939 13.13199,13.13198 z"
       transform="translate(157.54319,-67.845971)" />
    <path
       sodipodi:type="arc"
       style="fill:#5f8ab9;fill-opacity:1;stroke:#000000;stroke-width:5;stroke-linecap:butt;stroke-linejoin:miter;stroke-miterlimit:4;stroke-opacity:1;stroke-dasharray:none"
       id="path3882"
       sodipodi:cx="236.3757"
       sodipodi:cy="721.19788"
       sodipodi:rx="28.284273"
       sodipodi:ry="28.284273"
       d="m 264.65998,721.19788 c 0,15.62097 -12.66331,28.28427 -28.28428,28.28427 -15.62097,0 -28.28427,-12.6633 -28.28427,-28.28427 0,-15.62098 12.6633,-28.28428 28.28427,-28.28428 15.62097,0 28.28428,12.6633 28.28428,28.28428 z"
       transform="translate(159.60411,-117.34344)" />
    <path
       style="fill:#00eafa;fill-opacity:1;stroke:#000000;stroke-width:5;stroke-linecap:butt;stroke-linejoin:miter;stroke-miterlimit:4;stroke-opacity:1"
       d="m 511.13723,517.4864 66.67006,-60.10408 21.71828,55.05332 -87.88326,30.30458 z"
       id="rect3884"
       inkscape:connector-curvature="0"
       sodipodi:nodetypes="ccccc" />
    <path
       style="fill:#00eafa;fill-opacity:1;stroke:#000000;stroke-width:5;stroke-linecap:butt;stroke-linejoin:miter;stroke-miterlimit:4;stroke-opacity:1"
       d="m 596.49511,443.24019 73.74113,-16.16244 -16.16244,78.7919 -37.37564,1.51523 z"
       id="rect3886"
       inkscape:connector-curvature="0"
       sodipodi:nodetypes="ccccc" />
  </g>
</svg>
