<?xml version="1.0" encoding="UTF-8" standalone="no"?>
<!-- Created with Inkscape (http://www.inkscape.org/) -->

<svg
   xmlns:dc="http://purl.org/dc/elements/1.1/"
   xmlns:cc="http://creativecommons.org/ns#"
   xmlns:rdf="http://www.w3.org/1999/02/22-rdf-syntax-ns#"
   xmlns:svg="http://www.w3.org/2000/svg"
   xmlns="http://www.w3.org/2000/svg"
   xmlns:sodipodi="http://sodipodi.sourceforge.net/DTD/sodipodi-0.dtd"
   xmlns:inkscape="http://www.inkscape.org/namespaces/inkscape"
   width="744.09448819"
   height="1052.3622047"
   id="svg3850"
   version="1.1"
   inkscape:version="0.48.4 r9939"
   sodipodi:docname="iPhone.svg"
   inkscape:export-filename="C:\Users\JoeDono\Dropbox\Inkscape Pictures\iPhone.png"
   inkscape:export-xdpi="90"
   inkscape:export-ydpi="90">
  <defs
     id="defs3852" />
  <sodipodi:namedview
     id="base"
     pagecolor="#ffffff"
     bordercolor="#666666"
     borderopacity="1.0"
     inkscape:pageopacity="0.0"
     inkscape:pageshadow="2"
     inkscape:zoom="0.7"
     inkscape:cx="451.56551"
     inkscape:cy="527.93662"
     inkscape:document-units="px"
     inkscape:current-layer="layer1"
     showgrid="false"
     inkscape:window-width="1107"
     inkscape:window-height="987"
     inkscape:window-x="791"
     inkscape:window-y="11"
     inkscape:window-maximized="0" />
  <metadata
     id="metadata3855">
    <rdf:RDF>
      <cc:Work
         rdf:about="">
        <dc:format>image/svg+xml</dc:format>
        <dc:type
           rdf:resource="http://purl.org/dc/dcmitype/StillImage" />
        <dc:title></dc:title>
      </cc:Work>
    </rdf:RDF>
  </metadata>
  <g
     inkscape:label="Layer 1"
     inkscape:groupmode="layer"
     id="layer1">
    <rect
       style="fill:#bebebe;fill-opacity:1;stroke:#000000;stroke-opacity:1"
       id="rect3858"
       width="476.79199"
       height="765.69562"
       x="129.29951"
       y="110.90001"
       ry="52.527931" />
    <rect
       ry="51.570679"
       y="117.87691"
       x="139.17181"
       height="751.74182"
       width="457.04739"
       id="rect4368"
       style="fill:#000000;fill-opacity:1;stroke:none" />
    <path
       sodipodi:type="arc"
       style="fill:#3a3a3a;stroke:#bebebe;stroke-width:1;stroke-linecap:butt;stroke-linejoin:round;stroke-miterlimit:4;stroke-opacity:1;stroke-dasharray:none;fill-opacity:0.63829786"
       id="path4370"
       sodipodi:cx="76.266518"
       sodipodi:cy="80.090355"
       sodipodi:rx="22.728432"
       sodipodi:ry="22.728432"
       d="m 98.994949,80.090355 a 22.728432,22.728432 0 1 1 -45.456863,0 22.728432,22.728432 0 1 1 45.456863,0 z"
       transform="translate(119.198,89.903577)" />
    <rect
       style="fill:none;stroke:#bebebe;stroke-width:1.07185709;stroke-linecap:butt;stroke-linejoin:round;stroke-miterlimit:4;stroke-opacity:1;stroke-dasharray:none"
       id="rect4376"
       width="114.07539"
       height="61.547451"
       x="165.70096"
       y="140.23036"
       ry="30.773726" />
    <path
       sodipodi:type="arc"
       style="fill:#090054;fill-opacity:1;stroke:#bebebe;stroke-width:5;stroke-linecap:butt;stroke-linejoin:round;stroke-miterlimit:4;stroke-opacity:1;stroke-dasharray:none"
       id="path4378"
       sodipodi:cx="92.428955"
       sodipodi:cy="65.948219"
       sodipodi:rx="16.667517"
       sodipodi:ry="16.667517"
       d="m 109.09647,65.948219 a 16.667517,16.667517 0 1 1 -33.335032,0 16.667517,16.667517 0 1 1 33.335032,0 z"
       transform="matrix(0.71014299,0,0,0.71014299,129.59451,122.65618)" />
    <path
       sodipodi:type="arc"
       style="fill:#ffffff;fill-opacity:1;stroke:none"
       id="path4380"
       sodipodi:cx="141.54762"
       sodipodi:cy="115.31943"
       sodipodi:rx="1.8940361"
       sodipodi:ry="1.8940361"
       d="m 143.44166,115.31943 a 1.8940361,1.8940361 0 1 1 -3.78807,0 1.8940361,1.8940361 0 1 1 3.78807,0 z"
       transform="translate(49.012704,49.750013)" />
    <path
       sodipodi:type="arc"
       style="fill:#fdff75;fill-opacity:1;stroke:#bebebe;stroke-width:3.40000010000000020;stroke-miterlimit:4;stroke-opacity:1;stroke-dasharray:none"
       id="path4382"
       sodipodi:cx="251.0229"
       sodipodi:cy="174.03455"
       sodipodi:rx="12.879445"
       sodipodi:ry="12.879445"
       d="m 263.90235,174.03455 a 12.879445,12.879445 0 1 1 -25.75889,0 12.879445,12.879445 0 1 1 25.75889,0 z"
       transform="matrix(0.51499747,0,0,0.51499747,119.97898,80.619124)" />
    <path
       style="fill:#bebebe;fill-opacity:1;stroke:none"
       d="m 339.80748,282.76487 c -14.72577,0.33074 -23.91738,23.48082 -23.91738,39.37406 0,15.89323 9.53189,30.28856 19.94721,40.70386 10.41531,10.41531 9.3925,-0.32763 25.28573,-0.32763 15.89323,0 15.29443,10.74294 25.70973,0.32763 7.27965,-7.27964 13.69953,-16.29146 16.90213,-26.48064 -9.87242,-3.53496 -16.94067,-12.96424 -16.94067,-24.05228 0,-9.05689 4.72677,-17.00939 11.83341,-21.54684 -2.95918,-4.60155 -6.96126,-7.6012 -12.23814,-7.55489 -17.90411,0.15713 -24.39919,8.69198 -24.39919,8.69198 0,0 -9.56493,-9.41864 -22.18283,-9.13525 z"
       id="path4386"
       inkscape:connector-curvature="0" />
    <path
       style="fill:#bebebe;fill-opacity:1;stroke:none"
       d="m 377.98937,274.86344 c -2.70103,4.84935 -13.21554,10.13191 -13.21554,10.13191 0,0 -1.1664,-10.35559 1.32155,-14.53709 2.70715,-4.54991 13.21554,-8.81037 13.21554,-8.81037 0,0 0.83269,9.34787 -1.32155,13.21555 z"
       id="path4392"
       inkscape:connector-curvature="0"
       sodipodi:nodetypes="acaca" />
    <flowRoot
       xml:space="preserve"
       id="flowRoot4395"
       style="font-size:40px;font-style:normal;font-weight:normal;line-height:125%;letter-spacing:0px;word-spacing:0px;fill:#bebebe;fill-opacity:1;stroke:none;font-family:Sans"
       transform="translate(67.142857,50)"><flowRegion
         id="flowRegion4397"><rect
           id="rect4399"
           width="264.28571"
           height="120"
           x="235.71428"
           y="639.50507"
           style="fill:#bebebe;fill-opacity:1" /></flowRegion><flowPara
         id="flowPara4401">iPhone</flowPara></flowRoot>    <path
       style="fill:#ffffff;fill-opacity:0.31216931;stroke:none"
       d="M 306.21875 117.875 L 139.15625 480.9375 L 139.15625 768 L 438.28125 117.875 L 306.21875 117.875 z "
       id="rect4419" />
  </g>
</svg>
