<?xml version="1.0" encoding="UTF-8" standalone="no"?>
<!-- Created with Inkscape (http://www.inkscape.org/) -->

<svg
   xmlns:dc="http://purl.org/dc/elements/1.1/"
   xmlns:cc="http://creativecommons.org/ns#"
   xmlns:rdf="http://www.w3.org/1999/02/22-rdf-syntax-ns#"
   xmlns:svg="http://www.w3.org/2000/svg"
   xmlns="http://www.w3.org/2000/svg"
   xmlns:xlink="http://www.w3.org/1999/xlink"
   xmlns:sodipodi="http://sodipodi.sourceforge.net/DTD/sodipodi-0.dtd"
   xmlns:inkscape="http://www.inkscape.org/namespaces/inkscape"
   width="744.09448819"
   height="1052.3622047"
   id="svg2"
   version="1.1"
   inkscape:version="0.48.4 r9939"
   sodipodi:docname="LittleDino.svg"
   inkscape:export-filename="C:\Users\joe.zusi\Dropbox\LittleDino.png"
   inkscape:export-xdpi="90"
   inkscape:export-ydpi="90">
  <defs
     id="defs4">
    <linearGradient
       id="linearGradient4215">
      <stop
         id="stop4217"
         offset="0"
         style="stop-color:#ffff00;stop-opacity:1;" />
      <stop
         id="stop4219"
         offset="1"
         style="stop-color:#99cc33;stop-opacity:1;" />
    </linearGradient>
    <linearGradient
       id="linearGradient4122">
      <stop
         style="stop-color:#ffff00;stop-opacity:1;"
         offset="0"
         id="stop4124" />
      <stop
         style="stop-color:#99cc33;stop-opacity:1;"
         offset="1"
         id="stop4126" />
    </linearGradient>
    <linearGradient
       inkscape:collect="always"
       xlink:href="#linearGradient4215"
       id="linearGradient4128"
       x1="57.142857"
       y1="480.93362"
       x2="511.42856"
       y2="206.6479"
       gradientUnits="userSpaceOnUse"
       gradientTransform="matrix(0.98097327,-0.19414285,0.19414285,0.98097327,-113.86291,104.852)" />
    <linearGradient
       inkscape:collect="always"
       xlink:href="#linearGradient4215"
       id="linearGradient4222"
       gradientUnits="userSpaceOnUse"
       x1="198.57143"
       y1="690.93359"
       x2="202.85715"
       y2="866.64789"
       gradientTransform="matrix(0.73446328,0,0,0.87272727,226.58273,32.196756)" />
    <linearGradient
       inkscape:collect="always"
       xlink:href="#linearGradient4215"
       id="linearGradient4236"
       gradientUnits="userSpaceOnUse"
       gradientTransform="matrix(0.73446328,0,0,0.87272727,316.86844,58.196751)"
       x1="198.57143"
       y1="690.93359"
       x2="202.85715"
       y2="866.64789" />
    <linearGradient
       inkscape:collect="always"
       xlink:href="#linearGradient4215"
       id="linearGradient4247"
       x1="147.14285"
       y1="610.21936"
       x2="201.42856"
       y2="661.64795"
       gradientUnits="userSpaceOnUse"
       gradientTransform="matrix(0.53514169,0.3826364,-0.3775117,0.53917652,604.98463,103.24005)" />
    <linearGradient
       inkscape:collect="always"
       xlink:href="#linearGradient4215"
       id="linearGradient3886"
       gradientUnits="userSpaceOnUse"
       gradientTransform="matrix(0.47040605,0.45989715,-0.45544899,0.47517641,614.30196,121.80707)"
       x1="147.14285"
       y1="610.21936"
       x2="201.42856"
       y2="661.64795" />
  </defs>
  <sodipodi:namedview
     id="base"
     pagecolor="#ffffff"
     bordercolor="#666666"
     borderopacity="1.0"
     inkscape:pageopacity="0.0"
     inkscape:pageshadow="2"
     inkscape:zoom="0.7"
     inkscape:cx="203.60562"
     inkscape:cy="432.49375"
     inkscape:document-units="px"
     inkscape:current-layer="layer1"
     showgrid="true"
     inkscape:window-width="708"
     inkscape:window-height="635"
     inkscape:window-x="39"
     inkscape:window-y="147"
     inkscape:window-maximized="0"
     inkscape:snap-grids="true" />
  <metadata
     id="metadata7">
    <rdf:RDF>
      <cc:Work
         rdf:about="">
        <dc:format>image/svg+xml</dc:format>
        <dc:type
           rdf:resource="http://purl.org/dc/dcmitype/StillImage" />
        <dc:title></dc:title>
      </cc:Work>
    </rdf:RDF>
  </metadata>
  <g
     inkscape:label="Layer 1"
     inkscape:groupmode="layer"
     id="layer1">
    <path
       sodipodi:nodetypes="sssss"
       inkscape:connector-curvature="0"
       id="path3868"
       d="m 427.28394,545.08848 c -22.81804,23.80636 -72.00315,46.23962 -89.6323,29.00428 -17.62917,-17.23527 2.97344,-67.61252 25.79148,-91.41887 22.81804,-23.80643 39.21082,-12.02698 56.83998,5.20835 17.62915,17.23527 29.81888,33.39983 7.00084,57.20624 z"
       style="fill:url(#linearGradient3886);fill-opacity:1;fill-rule:evenodd;stroke:none" />
    <path
       sodipodi:nodetypes="sssss"
       inkscape:connector-curvature="0"
       id="path3870"
       d="m 370.81743,555.55102 c 2.43814,19.6721 8.72745,35.07351 -46.63276,42.08229 -55.36019,7.00883 -151.40613,2.97096 -153.84426,-16.70113 -2.43814,-19.67217 89.65479,-47.52914 145.015,-54.53792 55.3602,-7.00883 53.02388,9.4846 55.46202,29.15676 z"
       style="fill:#99cc33;fill-opacity:1;fill-rule:evenodd;stroke:none" />
    <path
       sodipodi:nodetypes="sssss"
       inkscape:connector-curvature="0"
       id="path3872"
       d="m 213.03035,565.48367 c 8.76335,16.59481 31.42751,36.70693 6.35566,50.12675 -25.07185,13.41989 -74.12927,15.99961 -82.89263,-0.59518 -8.76339,-16.59487 0.72325,-23.93978 25.79509,-37.35967 25.07184,-13.41989 41.97849,-28.76675 50.74188,-12.1719 z"
       style="fill:#99cc33;fill-opacity:1;fill-rule:evenodd;stroke:none" />
    <path
       sodipodi:nodetypes="sssss"
       inkscape:connector-curvature="0"
       id="path3874"
       d="m 162.33428,599.20296 c 5.6845,13.33261 14.04273,49.86071 6.52394,53.10343 -7.51877,3.24277 -28.06737,-28.02787 -33.75187,-41.36043 -5.68451,-13.33261 5.64766,-3.67837 13.16646,-6.92109 7.51879,-3.2427 8.37695,-18.15447 14.06147,-4.82191 z"
       style="fill:#99cc33;fill-opacity:1;fill-rule:evenodd;stroke:none" />
    <path
       style="fill:#ffff90;fill-opacity:1;fill-rule:evenodd;stroke:none"
       d="m 157.68394,609.77013 c 5.54592,13.00753 15.37923,47.92112 10.11473,50.19162 -5.26454,2.27051 -23.63335,-28.9618 -29.17929,-41.96938 -5.54592,-13.00754 3.83119,-2.86458 9.09572,-5.13508 5.26455,-2.27051 4.42298,-16.09467 9.96889,-3.08717 z"
       id="path3876"
       inkscape:connector-curvature="0"
       sodipodi:nodetypes="sssss" />
    <path
       style="fill:#99cc33;fill-opacity:1;fill-rule:evenodd;stroke:none"
       d="m 183.21992,590.98147 c 8.48713,11.72504 24.71208,45.47562 18.10713,50.33416 -6.60494,4.85853 -33.53865,-21.01483 -42.02578,-32.73987 -8.48714,-11.72505 4.68625,-4.86163 11.29119,-9.72017 6.60496,-4.85853 4.14032,-19.59916 12.62746,-7.87412 z"
       id="path3878"
       inkscape:connector-curvature="0"
       sodipodi:nodetypes="sssss" />
    <path
       sodipodi:nodetypes="sssss"
       inkscape:connector-curvature="0"
       id="path3880"
       d="m 181.02972,602.33866 c 8.28021,11.43917 25.5844,43.28211 20.95971,46.68399 -4.62469,3.40187 -29.42702,-22.9256 -37.70722,-34.36471 -8.28021,-11.43919 3.09722,-3.65832 7.72192,-7.0602 4.62469,-3.40187 0.74536,-16.69827 9.02559,-5.25908 z"
       style="fill:#ffff90;fill-opacity:1;fill-rule:evenodd;stroke:none" />
    <path
       sodipodi:nodetypes="sssss"
       inkscape:connector-curvature="0"
       id="path3882"
       d="m 207.30816,578.96717 c 11.08119,9.26256 35.03368,37.96602 29.82501,44.32209 -5.20865,6.35609 -37.60603,-12.04211 -48.68721,-21.30467 -11.08117,-9.26248 3.35011,-5.88177 8.55876,-12.23786 5.20866,-6.35608 -0.77773,-20.04206 10.30344,-10.77956 z"
       style="fill:#99cc33;fill-opacity:1;fill-rule:evenodd;stroke:none" />
    <path
       style="fill:#d1d1b7;fill-opacity:1;fill-rule:evenodd;stroke:none"
       d="m 187.41566,503.28689 c 4.22412,21.3438 -2.77947,58.17104 -19.74506,61.52867 -16.96558,3.35763 -37.46864,-28.02581 -41.69275,-49.36961 -4.22412,-21.34381 9.43029,-24.56551 26.39587,-27.92314 16.96559,-3.35763 30.81783,-5.57972 35.04194,15.76408 z"
       id="path4164"
       inkscape:connector-curvature="0"
       sodipodi:nodetypes="sssss" />
    <path
       style="fill:#ffff90;fill-opacity:1;fill-rule:evenodd;stroke:none"
       d="m 207.96122,590.52905 c 10.81101,9.03671 35.34257,35.62117 31.69554,40.07159 -3.64701,4.45048 -34.09158,-14.91843 -44.90261,-23.95514 -10.81101,-9.03665 2.10545,-4.31913 5.75247,-8.76961 3.64702,-4.45043 -3.35647,-16.38355 7.4546,-7.34684 z"
       id="path3884"
       inkscape:connector-curvature="0"
       sodipodi:nodetypes="sssss" />
    <path
       sodipodi:nodetypes="sssss"
       inkscape:connector-curvature="0"
       id="path4167"
       d="m 246.27406,491.63831 c 4.22412,21.34381 -2.77947,58.17104 -19.74506,61.52868 -16.96558,3.35763 -37.46864,-28.02581 -41.69276,-49.36962 -4.22411,-21.3438 9.43029,-24.5655 26.39587,-27.92313 16.96559,-3.35763 30.81783,-5.57973 35.04195,15.76407 z"
       style="fill:#d1d1b7;fill-opacity:1;fill-rule:evenodd;stroke:none" />
    <path
       style="fill:url(#linearGradient4222);fill-opacity:1;fill-rule:evenodd;stroke:none"
       d="m 466.85714,817.21936 c 0,56.80643 -41.57356,54.85714 -92.85714,54.85714 -51.28359,0 -92.85715,1.94929 -92.85715,-54.85714 0,-56.80643 41.57356,-150.85714 92.85715,-150.85714 51.28358,0 92.85714,94.05071 92.85714,150.85714 z"
       id="path4205"
       inkscape:connector-curvature="0"
       sodipodi:nodetypes="sssss" />
    <path
       sodipodi:nodetypes="sssss"
       inkscape:connector-curvature="0"
       id="path4224"
       d="m 381.14285,858.46143 c 0,18.54249 -11.19288,17.9062 -25,17.9062 -13.80712,0 -25,0.63629 -25,-17.9062 0,-18.54248 11.19288,-49.24206 25,-49.24206 13.80712,0 25,30.69958 25,49.24206 z"
       style="fill:#ffff90;fill-opacity:1;fill-rule:evenodd;stroke:none" />
    <path
       style="fill:#ffff90;fill-opacity:1;fill-rule:evenodd;stroke:none"
       d="m 339.71428,839.98478 c 0,22.8817 -15.35024,22.09652 -34.28571,22.09652 -18.93548,0 -34.28572,0.78518 -34.28572,-22.09652 0,-22.88169 15.35024,-60.76542 34.28572,-60.76542 18.93547,0 34.28571,37.88373 34.28571,60.76542 z"
       id="path4228"
       inkscape:connector-curvature="0"
       sodipodi:nodetypes="sssss" />
    <path
       style="fill:#99cc33;fill-opacity:1;fill-rule:evenodd;stroke:none"
       d="m 591.42856,615.93362 c 0,93.4939 -71.31464,134.99998 -159.28571,134.99998 -87.97107,0 -159.28571,-41.50608 -159.28571,-134.99998 0,-93.49392 184.99999,-272.97108 184.99999,-185.00001 0,110.1944 133.57143,91.50609 133.57143,185.00001 z"
       id="path4188"
       inkscape:connector-curvature="0"
       sodipodi:nodetypes="sssss" />
    <path
       sodipodi:nodetypes="sssss"
       inkscape:connector-curvature="0"
       id="path4179"
       d="m 598.45921,247.20468 c 54.1633,6.05207 136.49076,53.49242 131.28477,100.08383 -5.20599,46.59136 -95.97403,74.69052 -150.13735,68.63847 -54.16329,-6.05205 -51.21133,-43.96356 -46.00534,-90.55492 5.20599,-46.59139 10.69462,-84.21943 64.85792,-78.16738 z"
       style="fill:#99cc33;fill-opacity:1;fill-rule:evenodd;stroke:none" />
    <path
       style="fill:#99cc33;fill-opacity:1;fill-rule:evenodd;stroke:none"
       d="m 540.70896,141.11996 c 52.80838,-13.47463 146.58737,1.81914 158.17828,47.24503 11.59089,45.42586 -63.39554,103.78197 -116.20393,117.25659 -52.80837,13.47463 -63.44126,-23.03479 -75.03215,-68.46064 -11.59091,-45.4259 -19.75058,-82.56636 33.0578,-96.04098 z"
       id="path4175"
       inkscape:connector-curvature="0"
       sodipodi:nodetypes="sssss" />
    <path
       sodipodi:nodetypes="sssss"
       inkscape:connector-curvature="0"
       id="path4171"
       d="M 439.38424,88.467561 C 470.9486,44.038055 552.36751,-4.945219 590.58588,22.206524 628.80422,49.358244 609.3495,142.36316 577.78512,186.79268 546.22076,231.22218 514.49952,210.25175 476.28119,183.10003 438.06282,155.9483 407.81987,132.89708 439.38424,88.467561 z"
       style="fill:#99cc33;fill-opacity:1;fill-rule:evenodd;stroke:none" />
    <path
       sodipodi:nodetypes="sssss"
       inkscape:connector-curvature="0"
       id="path4177"
       d="m 596.31585,152.04665 c 25.45093,-4.14678 73.08376,8.66406 81.67505,32.64074 8.59132,23.97669 -25.11224,50.03977 -50.56318,54.18654 -25.45097,4.14677 -33.01156,-15.19309 -41.60288,-39.16978 -8.5913,-23.97668 -14.95997,-43.51074 10.49101,-47.6575 z"
       style="fill:#ebf50a;fill-opacity:1;fill-rule:evenodd;stroke:none" />
    <path
       style="fill:#ebf50a;fill-opacity:1;fill-rule:evenodd;stroke:none"
       d="m 488.86381,60.839869 c 16.73045,-19.622389 61.34647,-40.65604 83.4054,-27.924392 22.05897,12.731641 13.20761,54.407388 -3.52286,74.029763 -16.73047,19.62242 -35.00455,9.76085 -57.06352,-2.9708 C 489.6239,91.242797 472.13334,80.462272 488.86381,60.839869 z"
       id="path4173"
       inkscape:connector-curvature="0"
       sodipodi:nodetypes="sssss" />
    <path
       style="fill:url(#linearGradient4128);fill-opacity:1;fill-rule:evenodd;stroke:none"
       d="m 259.11638,157.22805 221.4197,-43.82082 c 27.17296,-5.37776 53.37805,12.16856 58.75581,39.34152 l 42.71142,215.81412 c 5.37776,27.17296 -12.16856,53.37805 -39.34152,58.7558 L 119.44188,511.07745 C 92.26892,516.45521 66.06383,498.90889 60.686074,471.73593 l -14.42204,-72.8723 C 26.232717,297.64854 74.987692,193.66866 259.11638,157.22805 z"
       id="rect4111"
       inkscape:connector-curvature="0"
       sodipodi:nodetypes="sssssssss" />
    <path
       style="fill:#80ab2b;fill-opacity:1;fill-rule:evenodd;stroke:none"
       d="m 526.01732,315.74114 c -22.1858,72.03691 -49.93445,67.2346 -127.40885,61.12736 -78.66858,-6.20133 -71.24096,-46.35895 -84.94075,-115.58181 -13.69978,-69.22285 70.92793,-99.26144 148.40233,-93.15423 78.66858,6.20137 84.98852,79.2881 63.94727,147.60868 z"
       id="path4156"
       inkscape:connector-curvature="0"
       sodipodi:nodetypes="sssss" />
    <path
       style="fill:#b3b3b3;fill-opacity:1;fill-rule:evenodd;stroke:none"
       d="m 354.67744,323.8108 c 16.933,14.99335 40.37993,22.23993 64.27874,17.51016 40.63324,-8.04166 67.05394,-47.50046 59.01228,-88.13371 -4.34765,-21.96797 -17.9274,-39.72035 -35.86191,-50.17993 1.05863,0.93757 2.13854,1.85247 3.14439,2.85002 1.70947,1.69539 3.33465,3.48093 4.87991,5.34174 1.54525,1.8608 3.004,3.80853 4.37025,5.82487 1.36626,2.01634 2.64533,4.09079 3.81783,6.25277 1.17249,2.16197 2.24011,4.39506 3.20407,6.69279 0.96396,2.29773 1.81293,4.68464 2.5536,7.10823 0.74066,2.4236 1.38232,4.89214 1.88492,7.43171 0.50261,2.53957 0.84958,5.06643 1.08789,7.58945 0.23831,2.52302 0.3625,5.05336 0.34641,7.54505 -0.0161,2.4917 -0.15266,4.9631 -0.41327,7.4087 -0.26061,2.4456 -0.65311,4.85087 -1.14836,7.23561 -0.49524,2.38475 -1.10214,4.74129 -1.82213,7.0504 -0.71999,2.30912 -1.54255,4.5791 -2.47739,6.79781 -0.93484,2.21872 -1.96825,4.39493 -3.10806,6.5085 -1.13982,2.11356 -2.38532,4.15816 -3.72021,6.1518 -1.33489,1.99363 -2.78161,3.93009 -4.30169,5.78904 -1.52008,1.85894 -3.13863,3.64336 -4.83401,5.35283 -1.69539,1.70947 -3.45028,3.32859 -5.31108,4.87384 -1.86081,1.54526 -3.80854,3.00401 -5.82488,4.37026 -2.01633,1.36625 -4.12145,2.6514 -6.28342,3.82389 -2.16198,1.17249 -4.39506,2.24011 -6.6928,3.20407 -2.29773,0.96396 -4.64791,1.83752 -7.07151,2.57819 -2.42359,0.74067 -4.8982,1.35167 -7.43777,1.85427 -2.53957,0.5026 -5.09102,0.8863 -7.61403,1.12461 -2.52302,0.23831 -5.02878,0.32578 -7.52047,0.30968 -2.49169,-0.0161 -4.9631,-0.15265 -7.4087,-0.41326 -2.4456,-0.26062 -4.88153,-0.64705 -7.26627,-1.14229 -2.38474,-0.49524 -4.71063,-1.10821 -7.01974,-1.8282 -2.30912,-0.71999 -4.57909,-1.54256 -6.79781,-2.47739 -2.21872,-0.93484 -4.39493,-1.96825 -6.50849,-3.10806 -0.73481,-0.39628 -1.4154,-0.87721 -2.13629,-1.29745 z"
       id="path4144"
       inkscape:connector-curvature="0" />
    <path
       style="fill:#ffffff;fill-opacity:1;fill-rule:evenodd;stroke:none"
       d="m 354.67744,323.8108 c 0.72089,0.42024 1.40148,0.90117 2.13629,1.29745 2.11356,1.13981 4.28977,2.17322 6.50849,3.10806 2.21872,0.93483 4.48869,1.7574 6.79781,2.47739 2.30911,0.71999 4.635,1.33296 7.01974,1.8282 2.38474,0.49524 4.82067,0.88167 7.26627,1.14229 2.4456,0.26061 4.91701,0.39717 7.4087,0.41326 2.49169,0.0161 4.99745,-0.0714 7.52047,-0.30968 2.52301,-0.23831 5.07446,-0.62201 7.61403,-1.12461 2.53957,-0.5026 5.01418,-1.1136 7.43777,-1.85427 2.4236,-0.74067 4.77378,-1.61423 7.07151,-2.57819 2.29774,-0.96396 4.53082,-2.03158 6.6928,-3.20407 2.16197,-1.17249 4.26709,-2.45764 6.28342,-3.82389 2.01634,-1.36625 3.96407,-2.825 5.82488,-4.37026 1.8608,-1.54525 3.61569,-3.16437 5.31108,-4.87384 1.69538,-1.70947 3.31393,-3.49389 4.83401,-5.35283 1.52008,-1.85895 2.9668,-3.79541 4.30169,-5.78904 1.33489,-1.99364 2.58039,-4.03824 3.72021,-6.1518 1.13981,-2.11357 2.17322,-4.28978 3.10806,-6.5085 0.93484,-2.21871 1.7574,-4.48869 2.47739,-6.79781 0.71999,-2.30911 1.32689,-4.66565 1.82213,-7.0504 0.49525,-2.38474 0.88775,-4.79001 1.14836,-7.23561 0.26061,-2.4456 0.39718,-4.917 0.41327,-7.4087 0.0161,-2.49169 -0.1081,-5.02203 -0.34641,-7.54505 -0.23831,-2.52302 -0.58528,-5.04988 -1.08789,-7.58945 -0.5026,-2.53957 -1.14426,-5.00811 -1.88492,-7.43171 -0.74067,-2.42359 -1.58964,-4.8105 -2.5536,-7.10823 -0.96396,-2.29773 -2.03158,-4.53082 -3.20407,-6.69279 -1.1725,-2.16198 -2.45157,-4.23643 -3.81783,-6.25277 -1.36625,-2.01634 -2.825,-3.96407 -4.37025,-5.82487 -1.54526,-1.86081 -3.17044,-3.64635 -4.87991,-5.34174 -1.00585,-0.99755 -2.08576,-1.91245 -3.14439,-2.85002 -15.2382,-8.88706 -33.60653,-12.52637 -52.2718,-8.83235 -40.63325,8.04166 -67.05394,47.50046 -59.01228,88.13371 3.31188,16.73443 11.99814,31.00348 23.85497,41.50212 z"
       id="path4140"
       inkscape:connector-curvature="0" />
    <path
       sodipodi:type="arc"
       style="fill:#b700fc;fill-opacity:1;fill-rule:evenodd;stroke:none"
       id="path4150"
       sodipodi:cx="283.85287"
       sodipodi:cy="302.82898"
       sodipodi:rx="37.375645"
       sodipodi:ry="36.36549"
       d="m 321.22852,302.82898 a 37.375645,36.36549 0 1 1 -74.75129,0 37.375645,36.36549 0 1 1 74.75129,0 z"
       transform="matrix(0.98097327,-0.19414285,0.19414285,0.98097327,50.518692,30.099949)" />
    <path
       transform="matrix(0.66281978,-0.1311776,0.12942856,0.65398216,160.62095,112.2404)"
       d="m 321.22852,302.82898 a 37.375645,36.36549 0 1 1 -74.75129,0 37.375645,36.36549 0 1 1 74.75129,0 z"
       sodipodi:ry="36.36549"
       sodipodi:rx="37.375645"
       sodipodi:cy="302.82898"
       sodipodi:cx="283.85287"
       id="path4152"
       style="fill:#000000;fill-opacity:1;fill-rule:evenodd;stroke:none"
       sodipodi:type="arc" />
    <path
       sodipodi:type="arc"
       style="fill:#ffffff;fill-opacity:1;fill-rule:evenodd;stroke:none"
       id="path4154"
       sodipodi:cx="283.85287"
       sodipodi:cy="302.82898"
       sodipodi:rx="37.375645"
       sodipodi:ry="36.36549"
       d="m 321.22852,302.82898 a 37.375645,36.36549 0 1 1 -74.75129,0 37.375645,36.36549 0 1 1 74.75129,0 z"
       transform="matrix(0.19684743,-0.03895776,0.04003992,0.20231543,305.79266,242.71317)" />
    <path
       style="fill:#80ab2b;fill-opacity:1;fill-rule:evenodd;stroke:none"
       d="m 125.97597,280.79231 c -7.36943,14.68967 -18.43282,38.48663 -31.338892,41.04085 -12.906087,2.55423 -9.321382,-33.58484 -2.879195,-48.63209 7.150245,-16.70111 23.293747,-30.40234 36.321647,-29.49732 12.57262,0.8734 5.40118,22.12914 -2.10356,37.08856 z"
       id="path4159"
       inkscape:connector-curvature="0"
       sodipodi:nodetypes="sssss" />
    <path
       sodipodi:nodetypes="sssss"
       inkscape:connector-curvature="0"
       id="path4169"
       d="m 178.99485,523.17545 c 2.0579,10.39826 -2.86141,28.63804 -12.98602,30.64179 -10.12463,2.00375 -21.62059,-12.98732 -23.67849,-23.38558 -2.0579,-10.39826 6.10154,-12.26611 16.22616,-14.26986 10.12462,-2.00374 18.38044,-3.38462 20.43835,7.01365 z"
       style="fill:#e4e4d4;fill-opacity:1;fill-rule:evenodd;stroke:none" />
    <path
       style="fill:#99cc33;fill-opacity:1;fill-rule:evenodd;stroke:none"
       d="M 300.79742,208.94512 442.19439,105.15061 c 13.65083,-10.020589 34.01186,3.65774 42.0158,23.55233 l 15.27312,37.96288 c 8.00394,19.89459 2.1521,41.4227 -13.12071,48.2693 l -155.16984,69.56063 c -15.27282,6.84661 -34.01186,-3.65773 -42.0158,-23.55233 l -1.50023,-3.72899 c -8.00395,-19.8946 -0.53015,-38.24872 13.12069,-48.26931 z"
       id="rect4183"
       inkscape:connector-curvature="0"
       sodipodi:nodetypes="sssssssss" />
    <path
       sodipodi:nodetypes="sssssssss"
       inkscape:connector-curvature="0"
       id="path4186"
       d="m 318.68059,208.96841 117.50486,-83.11814 c 11.34423,-8.02444 27.57438,1.88108 33.60431,16.86908 l 11.50631,28.6001 c 6.74554,16.76667 -31.9547,-5.20912 -43.1753,3.00068 l -81.49368,59.62668 c -16.40947,12.00637 -38.54973,45.00428 -43.80249,29.69195 l -5.97963,-17.43113 c -5.25277,-15.31234 0.49139,-29.21477 11.83562,-37.23922 z"
       style="fill:#edf50a;fill-opacity:1;fill-rule:evenodd;stroke:none" />
    <path
       sodipodi:nodetypes="sssss"
       inkscape:connector-curvature="0"
       id="path4191"
       d="m 468.57142,618.64121 c 0,65.89557 -43.81214,95.14953 -97.85714,95.14953 -54.04501,0 -97.85714,-29.25396 -97.85714,-95.14953 0,-65.89559 113.6547,-192.39315 113.6547,-130.39013 0,77.66627 82.05958,64.49454 82.05958,130.39013 z"
       style="fill:#cfe718;fill-opacity:1;fill-rule:evenodd;stroke:none" />
    <path
       style="fill:#99cc33;fill-opacity:1;fill-rule:evenodd;stroke:none"
       d="m 467.313,462.64368 c 34.53662,-20.39192 102.36139,-27.91126 117.95188,3.00802 15.59046,30.91924 -26.95716,88.56858 -61.49378,108.9605 -34.53661,20.39192 -47.98393,-4.19558 -63.57439,-35.11483 -15.59049,-30.91925 -27.42032,-56.46177 7.11629,-76.85369 z"
       id="path4193"
       inkscape:connector-curvature="0"
       sodipodi:nodetypes="sssss" />
    <path
       sodipodi:nodetypes="sssss"
       inkscape:connector-curvature="0"
       id="path4195"
       d="m 507.83778,459.54437 c 17.03349,-8.11067 52.31832,-8.24092 62.26935,7.58547 9.95106,15.8264 -9.19992,41.61632 -26.23342,49.72699 -17.03351,8.11069 -25.49928,-4.52922 -35.45034,-20.35562 -9.95104,-15.8264 -17.61911,-28.84616 -0.58559,-36.95684 z"
       style="fill:#ebf50a;fill-opacity:1;fill-rule:evenodd;stroke:none" />
    <path
       style="fill:#99cc33;fill-opacity:1;fill-rule:evenodd;stroke:none"
       d="m 583.59199,617.19075 c 38.36833,11.68245 89.73866,56.60271 77.47877,88.98727 -12.25988,32.38452 -83.50738,39.96997 -121.87572,28.28753 -38.36832,-11.68243 -29.3282,-38.20886 -17.06831,-70.59339 12.25987,-32.38455 23.09693,-58.36384 61.46526,-46.68141 z"
       id="path4201"
       inkscape:connector-curvature="0"
       sodipodi:nodetypes="sssss" />
    <path
       sodipodi:nodetypes="sssss"
       inkscape:connector-curvature="0"
       id="path4197"
       d="m 541.49021,535.40499 c 39.19318,-8.51485 105.94822,5.64514 111.04048,39.89618 5.09225,34.251 -53.40659,75.62286 -92.59978,84.13772 -39.19317,8.51486 -44.23905,-19.05169 -49.3313,-53.3027 -5.09227,-34.25102 -8.30258,-62.21634 30.8906,-70.7312 z"
       style="fill:#99cc33;fill-opacity:1;fill-rule:evenodd;stroke:none" />
    <path
       sodipodi:nodetypes="sssss"
       inkscape:connector-curvature="0"
       id="path4203"
       d="m 613.25811,644.97177 c 17.48822,7.07707 41.42507,33.00125 36.48135,51.0306 -4.94371,18.02937 -36.8959,21.33658 -54.38412,14.25949 -17.48824,-7.07707 -13.89008,-21.85847 -8.94638,-39.88784 4.94372,-18.02936 9.36091,-32.47934 26.84915,-25.40225 z"
       style="fill:#ebf50a;fill-opacity:1;fill-rule:evenodd;stroke:none" />
    <path
       style="fill:#ebf50a;fill-opacity:1;fill-rule:evenodd;stroke:none"
       d="m 580.93825,545.18843 c 18.71881,-2.35137 52.2596,8.60543 56.73729,26.75613 4.47772,18.15072 -21.80326,36.62205 -40.52208,38.97341 -18.71883,2.35138 -22.78705,-12.30762 -27.26477,-30.45833 -4.4777,-18.15071 -7.66928,-32.91985 11.04956,-35.27121 z"
       id="path4199"
       inkscape:connector-curvature="0"
       sodipodi:nodetypes="sssss" />
    <path
       sodipodi:nodetypes="sssss"
       inkscape:connector-curvature="0"
       id="path4230"
       d="m 557.14285,843.21935 c 0,56.80643 -41.57356,54.85714 -92.85714,54.85714 -51.28359,0 -92.85715,1.94929 -92.85715,-54.85714 0,-56.80643 41.57356,-150.85714 92.85715,-150.85714 51.28358,0 92.85714,94.05071 92.85714,150.85714 z"
       style="fill:url(#linearGradient4236);fill-opacity:1;fill-rule:evenodd;stroke:none" />
    <path
       style="fill:#ffff90;fill-opacity:1;fill-rule:evenodd;stroke:none"
       d="m 472.85713,885.50899 c 0,18.93697 -13.11166,18.28715 -29.28571,18.28715 -16.17406,0 -29.28572,0.64982 -29.28572,-18.28715 0,-18.93695 13.11166,-50.28964 29.28572,-50.28964 16.17405,0 29.28571,31.35269 29.28571,50.28964 z"
       id="path4232"
       inkscape:connector-curvature="0"
       sodipodi:nodetypes="sssss" />
    <path
       sodipodi:nodetypes="sssss"
       inkscape:connector-curvature="0"
       id="path4234"
       d="m 429.99999,865.98477 c 0,22.8817 -15.35024,22.09652 -34.28571,22.09652 -18.93548,0 -34.28572,0.78518 -34.28572,-22.09652 0,-22.88169 15.35024,-60.76542 34.28572,-60.76542 18.93547,0 34.28571,37.88373 34.28571,60.76542 z"
       style="fill:#ffff90;fill-opacity:1;fill-rule:evenodd;stroke:none" />
    <path
       style="fill:url(#linearGradient4247);fill-opacity:1;fill-rule:evenodd;stroke:none"
       d="m 484.82527,550.12328 c -18.91338,27.01277 -64.0941,56.69658 -84.14932,42.3567 -20.05522,-14.33981 -7.39043,-67.27314 11.52295,-94.28591 18.91337,-27.01284 36.91325,-17.87593 56.96847,-3.53606 20.05521,14.33981 34.57127,28.45244 15.6579,55.46527 z"
       id="path4238"
       inkscape:connector-curvature="0"
       sodipodi:nodetypes="sssss" />
    <path
       style="fill:#99cc33;fill-opacity:1;fill-rule:evenodd;stroke:none"
       d="m 430.61988,569.08924 c 5.41477,19.06872 13.98309,33.32855 -39.6566,48.71228 -53.63967,15.38378 -149.17509,26.06597 -154.58986,6.99725 -5.41478,-19.06879 81.34156,-60.66756 134.98125,-76.05129 53.63967,-15.38378 53.85043,1.27297 59.26521,20.34176 z"
       id="path3081"
       inkscape:connector-curvature="0"
       sodipodi:nodetypes="sssss" />
    <path
       style="fill:#99cc33;fill-opacity:1;fill-rule:evenodd;stroke:none"
       d="m 261.30523,609.06865 c 11.92674,14.4892 38.17786,29.62326 16.32346,47.81872 -21.85438,18.19553 -69.38636,30.60504 -81.31311,16.11586 -11.92678,-14.48926 -4.11428,-23.59468 17.7401,-41.7902 21.85437,-18.19553 35.32278,-36.63361 47.24955,-22.14438 z"
       id="path3084"
       inkscape:connector-curvature="0"
       sodipodi:nodetypes="sssss" />
    <path
       style="fill:#99cc33;fill-opacity:1;fill-rule:evenodd;stroke:none"
       d="m 218.4413,652.30943 c 8.25384,11.91413 23.79935,46.00957 17.08795,50.70047 -6.71136,4.69096 -33.1382,-21.79903 -41.39201,-33.71311 -8.25386,-11.91412 4.79086,-4.74069 11.50226,-9.4316 6.71139,-4.69089 4.54796,-19.46983 12.8018,-7.55576 z"
       id="path3087"
       inkscape:connector-curvature="0"
       sodipodi:nodetypes="sssss" />
    <path
       sodipodi:nodetypes="sssss"
       inkscape:connector-curvature="0"
       id="path3090"
       d="m 216.01507,663.59679 c 8.05261,11.62362 24.7177,43.84049 20.01849,47.125 -4.69922,3.28451 -28.98323,-23.60707 -37.03586,-35.23074 -8.0526,-11.62363 3.17557,-3.57764 7.87478,-6.86215 4.69922,-3.28451 1.09,-16.65572 9.14259,-5.03211 z"
       style="fill:#ffff90;fill-opacity:1;fill-rule:evenodd;stroke:none" />
    <path
       sodipodi:nodetypes="sssss"
       inkscape:connector-curvature="0"
       id="path3860"
       d="m 237.24253,640.04906 c 10.67515,9.77492 33.36657,39.56502 27.87579,45.65453 -5.49078,6.08949 -37.08453,-13.8276 -47.75968,-23.6025 -10.67517,-9.77492 3.61079,-5.70602 9.10156,-11.79552 5.49079,-6.0895 0.10717,-20.03142 10.78233,-10.25651 z"
       style="fill:#99cc33;fill-opacity:1;fill-rule:evenodd;stroke:none" />
    <path
       style="fill:#ffff90;fill-opacity:1;fill-rule:evenodd;stroke:none"
       d="m 237.38515,651.61463 c 10.41489,9.5366 33.77912,37.24076 29.93456,41.50453 -3.84457,4.26379 -33.44211,-16.52747 -43.85698,-26.06401 -10.41489,-9.53661 2.29674,-4.20726 6.14132,-8.47104 3.84456,-4.26378 -2.63381,-16.50609 7.7811,-6.96948 z"
       id="path3862"
       inkscape:connector-curvature="0"
       sodipodi:nodetypes="sssss" />
    <path
       style="fill:#99cc33;fill-opacity:1;fill-rule:evenodd;stroke:none"
       d="m 258.41663,623.42846 c 12.71996,6.84035 41.96374,30.13008 38.1423,37.40514 -3.82143,7.27506 -39.26096,-4.21945 -51.98092,-11.05979 -12.71992,-6.84028 2.09655,-6.43607 5.91797,-13.71114 3.82144,-7.27507 -4.79929,-19.4745 7.92065,-12.63421 z"
       id="path3864"
       inkscape:connector-curvature="0"
       sodipodi:nodetypes="sssss" />
    <path
       sodipodi:nodetypes="sssss"
       inkscape:connector-curvature="0"
       id="path3866"
       d="m 261.38545,634.62175 c 12.40983,6.67355 41.79393,27.77108 39.11821,32.86495 -2.67569,5.09393 -36.39798,-7.74478 -48.80783,-14.41834 -12.40981,-6.67349 1.19219,-4.65472 3.86788,-9.74866 2.67571,-5.09388 -6.5881,-15.3715 5.82174,-8.69795 z"
       style="fill:#ffff90;fill-opacity:1;fill-rule:evenodd;stroke:none" />
  </g>
</svg>
