<?xml version="1.0" encoding="UTF-8" standalone="no"?>
<!-- Created with Inkscape (http://www.inkscape.org/) -->

<svg
   xmlns:dc="http://purl.org/dc/elements/1.1/"
   xmlns:cc="http://creativecommons.org/ns#"
   xmlns:rdf="http://www.w3.org/1999/02/22-rdf-syntax-ns#"
   xmlns:svg="http://www.w3.org/2000/svg"
   xmlns="http://www.w3.org/2000/svg"
   xmlns:sodipodi="http://sodipodi.sourceforge.net/DTD/sodipodi-0.dtd"
   xmlns:inkscape="http://www.inkscape.org/namespaces/inkscape"
   width="744.09448819"
   height="1052.3622047"
   id="svg3853"
   version="1.1"
   inkscape:version="0.48.4 r9939"
   sodipodi:docname="RedditAlien.svg"
   inkscape:export-filename="C:\Users\JoeDono\Dropbox\Inkscape Pictures\RedditAlien.png"
   inkscape:export-xdpi="90"
   inkscape:export-ydpi="90">
  <defs
     id="defs3855" />
  <sodipodi:namedview
     id="base"
     pagecolor="#ffffff"
     bordercolor="#666666"
     borderopacity="1.0"
     inkscape:pageopacity="0.0"
     inkscape:pageshadow="2"
     inkscape:zoom="0.24748737"
     inkscape:cx="-132.11098"
     inkscape:cy="296.27863"
     inkscape:document-units="px"
     inkscape:current-layer="layer1"
     showgrid="false"
     inkscape:window-width="1305"
     inkscape:window-height="846"
     inkscape:window-x="75"
     inkscape:window-y="75"
     inkscape:window-maximized="0" />
  <metadata
     id="metadata3858">
    <rdf:RDF>
      <cc:Work
         rdf:about="">
        <dc:format>image/svg+xml</dc:format>
        <dc:type
           rdf:resource="http://purl.org/dc/dcmitype/StillImage" />
        <dc:title></dc:title>
      </cc:Work>
    </rdf:RDF>
  </metadata>
  <g
     inkscape:label="Layer 1"
     inkscape:groupmode="layer"
     id="layer1">
    <path
       transform="matrix(-0.78626497,-0.09040029,-0.05394737,0.77702693,683.88727,536.24869)"
       d="m 290.92393,243.23 a 87.88327,162.63457 0 1 1 -175.76654,0 87.88327,162.63457 0 1 1 175.76654,0 z"
       sodipodi:ry="162.63457"
       sodipodi:rx="87.88327"
       sodipodi:cy="243.23"
       sodipodi:cx="203.04066"
       id="path4380"
       style="fill:#ffffff;fill-opacity:1;stroke:#000000;stroke-width:15;stroke-linecap:round;stroke-linejoin:round;stroke-miterlimit:4;stroke-opacity:1;stroke-dasharray:none"
       sodipodi:type="arc" />
    <path
       sodipodi:type="arc"
       style="fill:#ffffff;fill-opacity:1;stroke:#000000;stroke-width:15;stroke-linecap:round;stroke-linejoin:round;stroke-miterlimit:4;stroke-opacity:1;stroke-dasharray:none"
       id="path4378"
       sodipodi:cx="203.04066"
       sodipodi:cy="243.23"
       sodipodi:rx="87.88327"
       sodipodi:ry="162.63457"
       d="m 290.92393,243.23 a 87.88327,162.63457 0 1 1 -175.76654,0 87.88327,162.63457 0 1 1 175.76654,0 z"
       transform="matrix(0.78626497,-0.09040029,0.05394737,0.77702693,64.356511,536.24869)" />
    <path
       transform="translate(-410.01897,142.74841)"
       d="m 648.51791,175.54977 a 72.73098,72.73098 0 1 1 -145.46196,0 72.73098,72.73098 0 1 1 145.46196,0 z"
       sodipodi:ry="72.73098"
       sodipodi:rx="72.73098"
       sodipodi:cy="175.54977"
       sodipodi:cx="575.78693"
       id="path4384"
       style="fill:#ffffff;fill-opacity:1;stroke:#000000;stroke-width:15;stroke-linecap:round;stroke-linejoin:round;stroke-miterlimit:4;stroke-opacity:1;stroke-dasharray:none"
       sodipodi:type="arc" />
    <path
       sodipodi:nodetypes="ccsc"
       inkscape:connector-curvature="0"
       id="path4376"
       d="m 649.83593,978.34015 -253.92108,0 c 0,0 56.84217,-82.27071 126.96054,-82.27071 70.11837,0 126.96054,82.27071 126.96054,82.27071 z"
       style="fill:#ffffff;fill-opacity:1;stroke:#000000;stroke-width:13.54149055;stroke-linecap:round;stroke-linejoin:round;stroke-miterlimit:4;stroke-opacity:1" />
    <path
       style="fill:#ffffff;fill-opacity:1;stroke:#000000;stroke-width:13.54149055;stroke-linecap:round;stroke-linejoin:round;stroke-miterlimit:4;stroke-opacity:1"
       d="m 348.04463,978.34015 -253.921067,0 c 0,0 56.842157,-82.27071 126.960527,-82.27071 70.11837,0 126.96054,82.27071 126.96054,82.27071 z"
       id="path4373"
       inkscape:connector-curvature="0"
       sodipodi:nodetypes="ccsc" />
    <path
       sodipodi:type="arc"
       style="fill:#ffffff;fill-opacity:1;stroke:#000000;stroke-width:15;stroke-linecap:round;stroke-linejoin:round;stroke-miterlimit:4;stroke-opacity:1;stroke-dasharray:none"
       id="path4371"
       sodipodi:cx="364.66507"
       sodipodi:cy="677.59558"
       sodipodi:rx="178.797"
       sodipodi:ry="293.95438"
       d="m 543.46207,677.59558 a 178.797,293.95438 0 1 1 -357.594,0 178.797,293.95438 0 1 1 357.594,0 z"
       transform="matrix(0.8451529,0,0,1.0020346,66.568854,4.6822908)" />
    <path
       sodipodi:type="arc"
       style="fill:#ffffff;fill-opacity:1;stroke:#000000;stroke-width:15;stroke-linecap:round;stroke-linejoin:round;stroke-miterlimit:4;stroke-opacity:1;stroke-dasharray:none"
       id="path4382"
       sodipodi:cx="575.78693"
       sodipodi:cy="175.54977"
       sodipodi:rx="72.73098"
       sodipodi:ry="72.73098"
       d="m 648.51791,175.54977 a 72.73098,72.73098 0 1 1 -145.46196,0 72.73098,72.73098 0 1 1 145.46196,0 z"
       transform="translate(17.692537,145.60555)" />
    <path
       sodipodi:type="arc"
       style="fill:#ffffff;fill-opacity:1;stroke:#000000;stroke-width:15;stroke-miterlimit:4;stroke-opacity:1;stroke-dasharray:none"
       id="path3861"
       sodipodi:cx="374.28571"
       sodipodi:cy="350.93362"
       sodipodi:rx="265.71429"
       sodipodi:ry="138.57143"
       d="m 640,350.93362 a 265.71429,138.57143 0 1 1 -531.42859,0 265.71429,138.57143 0 1 1 531.42859,0 z"
       transform="matrix(0.99664585,0,0,1.2559997,3.2757164,-33.270366)" />
    <path
       style="fill:none;stroke:#000000;stroke-width:16;stroke-linecap:butt;stroke-linejoin:miter;stroke-miterlimit:4;stroke-opacity:1;stroke-dasharray:none"
       d="M 408.10163,232.11832 482.85292,38.169028 598.01031,98.778184"
       id="path4386"
       inkscape:connector-curvature="0"
       sodipodi:nodetypes="ccc" />
    <path
       transform="translate(42.426407,-70.923821)"
       d="m 648.51791,175.54977 a 72.73098,72.73098 0 1 1 -145.46196,0 72.73098,72.73098 0 1 1 145.46196,0 z"
       sodipodi:ry="72.73098"
       sodipodi:rx="72.73098"
       sodipodi:cy="175.54977"
       sodipodi:cx="575.78693"
       id="path4388"
       style="fill:#ffffff;fill-opacity:1;stroke:#000000;stroke-width:15;stroke-linecap:round;stroke-linejoin:round;stroke-miterlimit:4;stroke-opacity:1;stroke-dasharray:none"
       sodipodi:type="arc" />
    <path
       sodipodi:type="arc"
       style="fill:#ff8000;fill-opacity:1;stroke:none"
       id="path4390"
       sodipodi:cx="227.28432"
       sodipodi:cy="132.11322"
       sodipodi:rx="51.51778"
       sodipodi:ry="51.51778"
       d="m 278.8021,132.11322 a 51.51778,51.51778 0 1 1 -103.03556,0 51.51778,51.51778 0 1 1 103.03556,0 z"
       transform="matrix(0.7504329,0,0,0.7504329,108.48557,279.45921)" />
    <path
       transform="matrix(0.7504329,0,0,0.7504329,301.69955,279.45921)"
       d="m 278.8021,132.11322 a 51.51778,51.51778 0 1 1 -103.03556,0 51.51778,51.51778 0 1 1 103.03556,0 z"
       sodipodi:ry="51.51778"
       sodipodi:rx="51.51778"
       sodipodi:cy="132.11322"
       sodipodi:cx="227.28432"
       id="path4392"
       style="fill:#ff8000;fill-opacity:1;stroke:none"
       sodipodi:type="arc" />
    <path
       style="font-size:medium;font-style:normal;font-variant:normal;font-weight:normal;font-stretch:normal;text-indent:0;text-align:start;text-decoration:none;line-height:normal;letter-spacing:normal;word-spacing:normal;text-transform:none;direction:ltr;block-progression:tb;writing-mode:lr-tb;text-anchor:start;baseline-shift:baseline;color:#000000;fill:#000000;fill-opacity:1;stroke:none;stroke-width:16;marker:none;visibility:visible;display:inline;overflow:visible;enable-background:accumulate;font-family:Sans;-inkscape-font-specification:Sans"
       d="m 469.07143,478 c 0,0 -19.61766,17.68581 -33.67458,22.375 -14.75185,4.92101 -42.82796,10.28125 -58.62622,10.28125 -16.26237,0 -39.8051,-3.18514 -58.42338,-10.21875 -18.61828,-7.03361 -33.69993,-22.28125 -33.69993,-22.28125 0,0 8.7729,20.59785 29.89633,29.5625 21.08737,7.96639 45.50829,10.9375 62.22698,10.9375 17.18278,0 45.66695,-2.30364 62.02411,-10.84375 C 461.1393,496.14636 469.07143,478 469.07143,478 z"
       id="path4394"
       inkscape:connector-curvature="0"
       sodipodi:nodetypes="csssccssc" />
  </g>
</svg>
