<?xml version="1.0" encoding="UTF-8" standalone="no"?>
<!-- Created with Inkscape (http://www.inkscape.org/) -->

<svg
   xmlns:dc="http://purl.org/dc/elements/1.1/"
   xmlns:cc="http://creativecommons.org/ns#"
   xmlns:rdf="http://www.w3.org/1999/02/22-rdf-syntax-ns#"
   xmlns:svg="http://www.w3.org/2000/svg"
   xmlns="http://www.w3.org/2000/svg"
   xmlns:sodipodi="http://sodipodi.sourceforge.net/DTD/sodipodi-0.dtd"
   xmlns:inkscape="http://www.inkscape.org/namespaces/inkscape"
   width="500"
   height="500"
   id="svg2"
   version="1.1"
   inkscape:version="0.48.4 r9939"
   sodipodi:docname="AB Theme Game - Feudal Japan.svg"
   inkscape:export-filename="C:\Projects-Personal\Art\AB Art\AB Theme Game - Feudal Japan.png"
   inkscape:export-xdpi="3.5999999"
   inkscape:export-ydpi="3.5999999">
  <defs
     id="defs4" />
  <sodipodi:namedview
     id="base"
     pagecolor="#ffffff"
     bordercolor="#666666"
     borderopacity="1.0"
     inkscape:pageopacity="0.0"
     inkscape:pageshadow="2"
     inkscape:zoom="0.7"
     inkscape:cx="167.41844"
     inkscape:cy="208.26825"
     inkscape:document-units="px"
     inkscape:current-layer="layer1"
     showgrid="false"
     inkscape:window-width="1134"
     inkscape:window-height="824"
     inkscape:window-x="250"
     inkscape:window-y="116"
     inkscape:window-maximized="0" />
  <metadata
     id="metadata7">
    <rdf:RDF>
      <cc:Work
         rdf:about="">
        <dc:format>image/svg+xml</dc:format>
        <dc:type
           rdf:resource="http://purl.org/dc/dcmitype/StillImage" />
        <dc:title></dc:title>
      </cc:Work>
    </rdf:RDF>
  </metadata>
  <g
     inkscape:label="Layer 1"
     inkscape:groupmode="layer"
     id="layer1"
     transform="translate(0,-552.36218)">
    <path
       sodipodi:type="arc"
       style="fill:none;stroke:#ac9393;stroke-width:31.23392487;stroke-miterlimit:4;stroke-opacity:1;stroke-dasharray:none"
       id="path2996"
       sodipodi:cx="362.85715"
       sodipodi:cy="374.57144"
       sodipodi:rx="364.28571"
       sodipodi:ry="341.42856"
       d="M 727.14285,374.57144 C 727.14285,563.13723 564.04659,716 362.85715,716 161.66771,716 -1.4285583,563.13723 -1.4285583,374.57144 c 0,-188.56578 163.0962683,-341.428557 364.2857083,-341.428557 201.18944,0 364.2857,152.862777 364.2857,341.428557 z"
       transform="matrix(0.65717367,0,0,0.70116857,11.539837,539.72445)" />
    <path
       sodipodi:type="arc"
       style="fill:#ac9393;fill-opacity:1;stroke:none"
       id="path3766"
       sodipodi:cx="340.71429"
       sodipodi:cy="348.85715"
       sodipodi:rx="40.714287"
       sodipodi:ry="40"
       d="m 381.42858,348.85715 c 0,22.09139 -18.22841,40 -40.71429,40 -22.48588,0 -40.71428,-17.90861 -40.71428,-40 0,-22.09139 18.2284,-40 40.71428,-40 22.48588,0 40.71429,17.90861 40.71429,40 z"
       transform="matrix(0.37244947,0,0,0.37151835,97.285933,646.46701)" />
    <path
       transform="matrix(0.37244947,0,0,0.37151835,124.90729,637.71737)"
       d="m 381.42858,348.85715 c 0,22.09139 -18.22841,40 -40.71429,40 -22.48588,0 -40.71428,-17.90861 -40.71428,-40 0,-22.09139 18.2284,-40 40.71428,-40 22.48588,0 40.71429,17.90861 40.71429,40 z"
       sodipodi:ry="40"
       sodipodi:rx="40.714287"
       sodipodi:cy="348.85715"
       sodipodi:cx="340.71429"
       id="path3768"
       style="fill:#ac9393;fill-opacity:1;stroke:none"
       sodipodi:type="arc" />
    <path
       sodipodi:type="arc"
       style="fill:#ac9393;fill-opacity:1;stroke:none"
       id="path3770"
       sodipodi:cx="340.71429"
       sodipodi:cy="348.85715"
       sodipodi:rx="40.714287"
       sodipodi:ry="40"
       d="m 381.42858,348.85715 c 0,22.09139 -18.22841,40 -40.71429,40 -22.48588,0 -40.71428,-17.90861 -40.71428,-40 0,-22.09139 18.2284,-40 40.71428,-40 22.48588,0 40.71429,17.90861 40.71429,40 z"
       transform="matrix(0.37244947,0,0,0.37151835,151.15615,648.52573)" />
    <path
       transform="matrix(0.37244947,0,0,0.37151835,158.70485,673.74524)"
       d="m 381.42858,348.85715 c 0,22.09139 -18.22841,40 -40.71429,40 -22.48588,0 -40.71428,-17.90861 -40.71428,-40 0,-22.09139 18.2284,-40 40.71428,-40 22.48588,0 40.71429,17.90861 40.71429,40 z"
       sodipodi:ry="40"
       sodipodi:rx="40.714287"
       sodipodi:cy="348.85715"
       sodipodi:cx="340.71429"
       id="path3772"
       style="fill:#ac9393;fill-opacity:1;stroke:none"
       sodipodi:type="arc" />
    <path
       sodipodi:type="arc"
       style="fill:#ac9393;fill-opacity:1;stroke:none"
       id="path3774"
       sodipodi:cx="340.71429"
       sodipodi:cy="348.85715"
       sodipodi:rx="40.714287"
       sodipodi:ry="40"
       d="m 381.42858,348.85715 c 0,22.09139 -18.22841,40 -40.71429,40 -22.48588,0 -40.71428,-17.90861 -40.71428,-40 0,-22.09139 18.2284,-40 40.71428,-40 22.48588,0 40.71429,17.90861 40.71429,40 z"
       transform="matrix(0.37244947,0,0,0.37151835,151.49928,700.50879)" />
    <path
       transform="matrix(0.37244947,0,0,0.37151835,123.19168,709.25841)"
       d="m 381.42858,348.85715 c 0,22.09139 -18.22841,40 -40.71429,40 -22.48588,0 -40.71428,-17.90861 -40.71428,-40 0,-22.09139 18.2284,-40 40.71428,-40 22.48588,0 40.71429,17.90861 40.71429,40 z"
       sodipodi:ry="40"
       sodipodi:rx="40.714287"
       sodipodi:cy="348.85715"
       sodipodi:cx="340.71429"
       id="path3776"
       style="fill:#ac9393;fill-opacity:1;stroke:none"
       sodipodi:type="arc" />
    <path
       sodipodi:type="arc"
       style="fill:#ac9393;fill-opacity:1;stroke:none"
       id="path3778"
       sodipodi:cx="340.71429"
       sodipodi:cy="348.85715"
       sodipodi:rx="40.714287"
       sodipodi:ry="40"
       d="m 381.42858,348.85715 c 0,22.09139 -18.22841,40 -40.71429,40 -22.48588,0 -40.71428,-17.90861 -40.71428,-40 0,-22.09139 18.2284,-40 40.71428,-40 22.48588,0 40.71429,17.90861 40.71429,40 z"
       transform="matrix(0.37244947,0,0,0.37151835,95.398757,700.50879)" />
    <path
       transform="matrix(0.37244947,0,0,0.37151835,86.649139,674.08837)"
       d="m 381.42858,348.85715 c 0,22.09139 -18.22841,40 -40.71429,40 -22.48588,0 -40.71428,-17.90861 -40.71428,-40 0,-22.09139 18.2284,-40 40.71428,-40 22.48588,0 40.71429,17.90861 40.71429,40 z"
       sodipodi:ry="40"
       sodipodi:rx="40.714287"
       sodipodi:cy="348.85715"
       sodipodi:cx="340.71429"
       id="path3780"
       style="fill:#ac9393;fill-opacity:1;stroke:none"
       sodipodi:type="arc" />
    <path
       sodipodi:type="arc"
       style="fill:#ac9393;fill-opacity:1;stroke:none"
       id="path3782"
       sodipodi:cx="340.71429"
       sodipodi:cy="348.85715"
       sodipodi:rx="40.714287"
       sodipodi:ry="40"
       d="m 381.42858,348.85715 c 0,22.09139 -18.22841,40 -40.71429,40 -22.48588,0 -40.71428,-17.90861 -40.71428,-40 0,-22.09139 18.2284,-40 40.71428,-40 22.48588,0 40.71429,17.90861 40.71429,40 z"
       transform="matrix(0.37244947,0,0,0.37151835,122.677,674.08837)" />
    <path
       style="fill:#ac9393;fill-opacity:1;stroke:none"
       d="m 304.56013,610.21288 c -14.88899,0.34909 -37.87537,8.37777 -54.05062,8.30077 -19.17065,-0.0912 -40.74025,-10.16738 -52.69191,-7.027 -11.95165,3.14039 -16.75018,12.63163 -16.75018,12.63163 0,0 -9.02985,-4.13931 -20.99609,1.99557 -11.96623,6.13489 -24.96839,31.3059 -39.18987,44.87943 -14.2215,13.57353 -40.316921,24.65357 -45.707376,36.30264 -5.390455,11.64908 0.59443,18.63961 0.59443,18.63961 0,0 -10.391724,2.30583 -15.030572,15.2641 -4.638847,12.95828 5.726318,41.08923 5.540931,60.88655 -0.185388,19.79732 -10.18766,44.9816 -6.305197,57.29875 3.882463,12.31714 13.098676,14.92442 13.098676,14.92442 0,0 -4.070197,8.16741 1.995584,19.76478 6.065781,11.59737 31.274574,24.69481 44.560974,38.14962 13.28639,13.45481 24.74106,34.24123 35.11379,42.07712 10.37273,7.83588 22.41848,2.63246 22.41848,2.63246 0,0 2.80639,8.80328 15.45516,12.6104 12.64877,3.80713 39.80068,-6.8489 59.12449,-6.72978 19.32382,0.1191 44.73669,7.8561 58.29654,5.98675 13.55983,-1.86935 14.75458,-14.49983 14.75458,-14.49983 0,0 8.72465,3.92832 20.14692,0.5732 11.42225,-3.35515 29.01635,-32.06301 38.14962,-43.32966 9.13328,-11.26666 44.17945,-27.84302 49.12534,-40.63349 4.94588,-12.79046 -2.1442,-18.25747 -2.1442,-18.25747 0,0 13.11798,-7.05217 16.94124,-19.72233 3.82326,-12.67016 -6.11224,-33.50326 -6.55995,-53.01036 -0.44771,-19.50709 10.02382,-51.13582 4.92527,-63.45533 -5.09854,-12.31951 -12.41932,-10.63605 -12.41932,-10.63605 0,0 2.86322,-9.36091 -3.37551,-20.63518 -6.23873,-11.27428 -32.86085,-30.57824 -42.31063,-37.27922 -9.4498,-6.70098 -29.69438,-39.85639 -38.89267,-43.62687 -9.19829,-3.77047 -19.00051,-0.23352 -19.00051,-0.23352 0,0 -3.98772,-9.54079 -17.47198,-13.14114 -2.10691,-0.56256 -4.58823,-0.76522 -7.34544,-0.70057 z M 214.589,631.06035 c 15.15782,-0.0668 35.07133,21.69668 35.07133,21.69668 0,0 31.53331,-28.19296 44.15761,-19.89215 12.6243,8.3008 6.74068,24.55328 1.54976,46.40794 -5.19092,21.85467 -16.24302,54.65534 -29.21196,54.77243 -6.90871,0.0623 -16.26189,-12.86515 -16.26189,-12.86515 0,0 -8.24126,15.34067 -14.30876,13.09868 -12.25323,-4.52768 -24.51034,-29.57209 -30.54942,-51.8852 -6.03909,-22.31313 -5.85411,-41.88284 0.95534,-48.06386 2.51591,-2.28374 5.45202,-3.25549 8.59799,-3.26937 z m 133.27955,15.87977 c 0.29645,-0.005 0.5839,-0.001 0.87042,0.0212 19.70916,1.53982 16.53787,44.4336 16.53787,44.4336 0,0 42.13459,3.61062 44.75204,18.491 2.61745,14.88036 -13.25003,21.73709 -32.71484,32.94836 -19.46482,11.21129 -50.90885,25.66215 -59.88877,16.30435 -4.78369,-4.98501 -1.78328,-20.63518 -1.78328,-20.63518 0,0 -16.81042,4.50964 -19.34018,-1.44361 -5.10885,-12.02254 4.69623,-38.13119 16.79263,-57.82949 11.71838,-19.08274 25.5844,-32.14328 34.77411,-32.29026 z m -182.76579,2.71738 c 13.05851,0.24051 19.05818,15.60844 28.7449,34.30707 10.33249,19.94523 23.37818,51.99302 13.62942,60.54689 -5.19328,4.55677 -20.72011,0.8704 -20.72011,0.8704 0,0 3.76729,17.01461 -2.29281,19.2765 -12.23832,4.56786 -37.88322,-6.42022 -57.02275,-19.38265 -19.13955,-12.96241 -31.779847,-27.91829 -30.655572,-37.04568 2.41682,-19.62095 45.134172,-14.52106 45.134172,-14.52106 0,0 5.48309,-41.95129 20.46536,-43.90286 0.93639,-0.12197 1.84682,-0.16464 2.71739,-0.14861 z m 83.4324,91.16 c 0.53268,-0.0135 1.0563,0 1.59222,0 34.29974,0 62.11786,27.7969 62.11786,62.09663 0,34.29974 -27.81812,62.09664 -62.11786,62.09664 -34.29974,0 -62.09664,-27.7969 -62.09664,-62.09664 0,-33.7638 26.94552,-61.24641 60.50442,-62.09663 z M 94.747794,750.83788 c 0.394836,-0.0101 0.805114,-0.005 1.210089,0 8.330847,0.11655 18.786877,3.46886 31.016467,6.64487 21.7415,5.64625 54.28934,17.3898 54.13553,30.35835 -0.082,6.90853 -13.18359,15.98591 -13.18359,15.98591 0,0 15.14846,8.5654 12.78023,14.58474 -4.78261,12.15601 -30.0877,23.87375 -52.52207,29.44549 -22.4344,5.57176 -41.983953,4.98393 -48.021405,-1.95312 -12.978561,-14.91239 19.340184,-43.26596 19.340184,-43.26596 0,0 -27.520735,-32.1128 -18.958052,-44.56098 3.512025,-5.10569 8.280048,-7.08708 14.202617,-7.2393 z m 308.063016,4.26715 c 10.05949,-0.0587 17.71492,1.86478 21.10223,5.77446 12.94515,14.94142 -19.44633,43.22351 -19.44633,43.22351 0,0 27.46366,32.17447 18.87314,44.60343 -8.59052,12.42897 -24.7004,6.16194 -46.42918,0.46705 -21.72879,-5.6949 -54.25468,-17.49632 -54.07184,-30.46451 0.0975,-6.9083 13.22605,-15.94344 13.22605,-15.94344 0,0 -15.1407,-8.59195 -12.759,-14.60599 4.80982,-12.14525 30.13897,-23.83905 52.58577,-29.36055 9.82048,-2.41566 19.09511,-3.64838 26.91916,-3.69396 z m -81.92511,85.53414 c 13.46934,-0.35507 33.92378,7.39207 50.20806,16.75017 20.04219,11.51768 33.75829,25.48256 33.30927,34.66798 -0.96527,19.74564 -43.94531,17.81164 -43.94531,17.81164 0,0 -2.37692,42.25437 -17.17477,45.30401 -14.79783,3.04963 -22.10916,-12.62941 -33.88247,-31.75951 -11.77332,-19.1301 -27.13752,-50.13065 -18.04518,-59.37925 4.84361,-4.92683 20.59273,-2.37771 20.59273,-2.37771 0,0 -5.02789,-16.70183 0.84919,-19.40388 2.22537,-1.02313 4.98017,-1.53151 8.08848,-1.61345 z m -141.21944,1.25255 c 4.51757,-0.11995 8.1431,0.79872 10.33884,3.18444 4.67882,5.0836 1.35869,20.69889 1.35869,20.69889 0,0 16.91379,-4.17894 19.31895,1.82574 4.85721,12.12639 -5.5197,38.02663 -18.02394,57.46858 -12.50425,19.44197 -27.1299,32.43321 -36.28142,31.52599 -19.67281,-1.95021 -15.60377,-44.77327 -15.60377,-44.77327 0,0 -42.063113,-4.49341 -44.369906,-19.4251 -2.306794,-14.93166 13.699966,-21.44455 33.394196,-32.24781 14.77066,-8.10239 36.31568,-17.89758 49.86836,-18.25746 z m 58.0418,31.69582 c 6.90869,0.0653 16.02835,13.16237 16.02835,13.16237 0,0 8.51727,-15.19765 14.54229,-12.84392 12.16748,4.75335 23.96837,30.03748 29.59409,52.45839 5.62572,22.42093 5.07552,41.98851 -1.84696,48.04263 -14.88114,13.01441 -43.32967,-19.23404 -43.32967,-19.23404 0,0 -32.04977,27.59691 -44.5185,19.06421 -12.46874,-8.53269 -6.27326,-24.67417 -0.67935,-46.42919 5.59391,-21.755 17.24086,-54.34305 30.20975,-54.22045 z"
       id="path3786"
       inkscape:connector-curvature="0" />
  </g>
</svg>
