<?xml version="1.0" encoding="UTF-8" standalone="no"?>
<!-- Created with Inkscape (http://www.inkscape.org/) -->

<svg
   xmlns:dc="http://purl.org/dc/elements/1.1/"
   xmlns:cc="http://creativecommons.org/ns#"
   xmlns:rdf="http://www.w3.org/1999/02/22-rdf-syntax-ns#"
   xmlns:svg="http://www.w3.org/2000/svg"
   xmlns="http://www.w3.org/2000/svg"
   xmlns:sodipodi="http://sodipodi.sourceforge.net/DTD/sodipodi-0.dtd"
   xmlns:inkscape="http://www.inkscape.org/namespaces/inkscape"
   width="540"
   height="540"
   id="svg2"
   version="1.1"
   inkscape:version="0.48.4 r9939"
   sodipodi:docname="HIVE Icon.svg"
   inkscape:export-filename="C:\Users\joe.zusi\Downloads\HIVE Icon.png"
   inkscape:export-xdpi="51.923077"
   inkscape:export-ydpi="51.923077">
  <defs
     id="defs4">
    <linearGradient
       id="linearGradient3932">
      <stop
         style="stop-color:#5fc100;stop-opacity:1;"
         offset="0"
         id="stop3934" />
      <stop
         style="stop-color:#40aa00;stop-opacity:1;"
         offset="1"
         id="stop3936" />
    </linearGradient>
  </defs>
  <sodipodi:namedview
     id="base"
     pagecolor="#ffffff"
     bordercolor="#666666"
     borderopacity="1.0"
     inkscape:pageopacity="0.0"
     inkscape:pageshadow="2"
     inkscape:zoom="0.7"
     inkscape:cx="142.11378"
     inkscape:cy="287.60051"
     inkscape:document-units="px"
     inkscape:current-layer="layer1"
     showgrid="false"
     inkscape:window-width="1248"
     inkscape:window-height="845"
     inkscape:window-x="189"
     inkscape:window-y="156"
     inkscape:window-maximized="0" />
  <metadata
     id="metadata7">
    <rdf:RDF>
      <cc:Work
         rdf:about="">
        <dc:format>image/svg+xml</dc:format>
        <dc:type
           rdf:resource="http://purl.org/dc/dcmitype/StillImage" />
        <dc:title></dc:title>
      </cc:Work>
    </rdf:RDF>
  </metadata>
  <g
     inkscape:label="Layer 1"
     inkscape:groupmode="layer"
     id="layer1"
     transform="translate(0,-512.36218)">
    <path
       sodipodi:type="arc"
       style="fill:#40aa00;fill-opacity:1;fill-rule:evenodd;stroke:none"
       id="path2985"
       sodipodi:cx="374.28571"
       sodipodi:cy="541.64789"
       sodipodi:rx="214.28572"
       sodipodi:ry="77.85714"
       d="m 588.57143,541.64789 a 214.28572,77.85714 0 1 1 -428.57145,0 214.28572,77.85714 0 1 1 428.57145,0 z"
       transform="matrix(0.88666664,0,0,2.1516216,-73.86665,-292.57822)" />
    <path
       style="fill:#ffffff;fill-opacity:0.37037036;fill-rule:evenodd;stroke:none"
       d="m 129.38188,790.2299 c -25.97998,22.27836 -42.116665,53.44114 -42.116665,87.91837 0,33.05487 14.838525,63.04635 38.957925,85.09866 -16.67722,-23.51195 -26.54459,-52.70998 -26.54459,-84.36996 0,-33.60574 11.12686,-64.4477 29.70333,-88.64707 z"
       id="path2985-48"
       inkscape:connector-curvature="0" />
    <path
       sodipodi:type="arc"
       style="fill:#40aa00;fill-opacity:1;fill-rule:evenodd;stroke:none"
       id="path2985-1"
       sodipodi:cx="374.28571"
       sodipodi:cy="541.64789"
       sodipodi:rx="214.28572"
       sodipodi:ry="77.85714"
       d="m 588.57143,541.64789 a 214.28572,77.85714 0 1 1 -428.57145,0 214.28572,77.85714 0 1 1 428.57145,0 z"
       transform="matrix(0.71399997,0,0,1.7326215,-5.679975,-209.60581)" />
    <path
       sodipodi:type="arc"
       style="fill:#40aa00;fill-opacity:1;fill-rule:evenodd;stroke:none"
       id="path2985-4"
       sodipodi:cx="374.28571"
       sodipodi:cy="541.64789"
       sodipodi:rx="214.28572"
       sodipodi:ry="77.85714"
       d="m 588.57143,541.64789 a 214.28572,77.85714 0 1 1 -428.57145,0 214.28572,77.85714 0 1 1 428.57145,0 z"
       transform="matrix(0.46697778,0,0,1.0256992,89.550241,44.652376)" />
    <path
       sodipodi:type="arc"
       style="fill:#000000;fill-opacity:1;fill-rule:evenodd;stroke:none"
       id="path3787"
       sodipodi:cx="91.428574"
       sodipodi:cy="412.82825"
       sodipodi:rx="10"
       sodipodi:ry="16.18034"
       d="m 101.42857,412.82825 a 10,16.18034 0 1 1 -19.999996,0 10,16.18034 0 1 1 19.999996,0 z"
       transform="matrix(2.5883703,0,0,2.2703965,124.75476,-44.64292)" />
    <path
       style="fill:#ffffff;fill-opacity:0.37037036;fill-rule:evenodd;stroke:none"
       d="m 181.03022,648.92685 c -19.27823,7.85471 -34.09999,23.13135 -39.76145,43.87999 -5.42421,19.8791 -1.40554,41.08105 9.44854,59.53103 -6.14184,-17.72232 -7.27156,-37.39281 -2.07813,-56.42617 5.51512,-20.21226 17.2621,-36.39049 32.39104,-46.98485 z"
       id="path2985-48-2"
       inkscape:connector-curvature="0" />
    <path
       style="fill:#ffffff;fill-opacity:0.37037036;fill-rule:evenodd;stroke:none"
       d="m 229.43668,546.37126 c -14.75628,1.27204 -27.64726,8.71738 -35.05104,21.95583 -7.08759,12.67308 -7.81784,28.31306 -3.325,43.53148 -1.33139,-13.68762 1.16551,-27.62607 7.9523,-39.76128 7.21687,-12.90425 18.09636,-21.64085 30.42374,-25.72603 z"
       id="path2985-48-2-5"
       inkscape:connector-curvature="0" />
    <path
       sodipodi:type="arc"
       style="fill:#ffffff;fill-opacity:1;stroke:none"
       id="path2992"
       sodipodi:cx="352.41696"
       sodipodi:cy="363.55261"
       sodipodi:rx="7.1973372"
       sodipodi:ry="7.1973372"
       d="m 359.6143,363.55261 a 7.1973372,7.1973372 0 1 1 -14.39468,0 7.1973372,7.1973372 0 1 1 14.39468,0 z"
       transform="translate(0,524.36218)" />
    <path
       transform="translate(20.076791,524.23592)"
       sodipodi:type="arc"
       style="fill:#ffffff;fill-opacity:1;stroke:none"
       id="path2992-3"
       sodipodi:cx="352.41696"
       sodipodi:cy="363.55261"
       sodipodi:rx="7.1973372"
       sodipodi:ry="7.1973372"
       d="m 359.6143,363.55261 a 7.1973372,7.1973372 0 1 1 -14.39468,0 7.1973372,7.1973372 0 1 1 14.39468,0 z" />
  </g>
</svg>
