<?xml version="1.0" encoding="UTF-8" standalone="no"?>
<!-- Created with Inkscape (http://www.inkscape.org/) -->

<svg
   xmlns:dc="http://purl.org/dc/elements/1.1/"
   xmlns:cc="http://creativecommons.org/ns#"
   xmlns:rdf="http://www.w3.org/1999/02/22-rdf-syntax-ns#"
   xmlns:svg="http://www.w3.org/2000/svg"
   xmlns="http://www.w3.org/2000/svg"
   xmlns:sodipodi="http://sodipodi.sourceforge.net/DTD/sodipodi-0.dtd"
   xmlns:inkscape="http://www.inkscape.org/namespaces/inkscape"
   width="380"
   height="520"
   id="svg2"
   version="1.1"
   inkscape:version="0.48.4 r9939"
   sodipodi:docname="HIVE Icon.svg"
   inkscape:export-filename="C:\Projects-Personal\Art\Blog\HIVE Icon.png"
   inkscape:export-xdpi="90"
   inkscape:export-ydpi="90">
  <defs
     id="defs4">
    <linearGradient
       id="linearGradient3932">
      <stop
         style="stop-color:#5fc100;stop-opacity:1;"
         offset="0"
         id="stop3934" />
      <stop
         style="stop-color:#40aa00;stop-opacity:1;"
         offset="1"
         id="stop3936" />
    </linearGradient>
  </defs>
  <sodipodi:namedview
     id="base"
     pagecolor="#ffffff"
     bordercolor="#666666"
     borderopacity="1.0"
     inkscape:pageopacity="0.0"
     inkscape:pageshadow="2"
     inkscape:zoom="0.98994949"
     inkscape:cx="231.74976"
     inkscape:cy="224.19219"
     inkscape:document-units="px"
     inkscape:current-layer="layer1"
     showgrid="false"
     inkscape:window-width="1248"
     inkscape:window-height="845"
     inkscape:window-x="189"
     inkscape:window-y="156"
     inkscape:window-maximized="0" />
  <metadata
     id="metadata7">
    <rdf:RDF>
      <cc:Work
         rdf:about="">
        <dc:format>image/svg+xml</dc:format>
        <dc:type
           rdf:resource="http://purl.org/dc/dcmitype/StillImage" />
        <dc:title></dc:title>
      </cc:Work>
    </rdf:RDF>
  </metadata>
  <g
     inkscape:label="Layer 1"
     inkscape:groupmode="layer"
     id="layer1"
     transform="translate(0,-532.36218)">
    <path
       sodipodi:type="arc"
       style="fill:#40aa00;fill-opacity:1;fill-rule:evenodd;stroke:none"
       id="path2985"
       sodipodi:cx="374.28571"
       sodipodi:cy="541.64789"
       sodipodi:rx="214.28572"
       sodipodi:ry="77.85714"
       d="m 588.57143,541.64789 c 0,42.99931 -95.93899,77.85714 -214.28572,77.85714 -118.34674,0 -214.28573,-34.85783 -214.28573,-77.85714 0,-42.99931 95.93899,-77.85714 214.28573,-77.85714 118.34673,0 214.28572,34.85783 214.28572,77.85714 z"
       transform="matrix(0.88666664,0,0,2.1516216,-141.86665,-280.57822)" />
    <path
       style="fill:#ffffff;fill-opacity:0.37037036;fill-rule:evenodd;stroke:none"
       d="m 61.381885,802.2299 c -25.979984,22.27836 -42.11667,53.44114 -42.11667,87.91837 0,33.05487 14.838525,63.04635 38.957923,85.09866 -16.677222,-23.51195 -26.544587,-52.70998 -26.544587,-84.36996 0,-33.60574 11.12686,-64.4477 29.703334,-88.64707 z"
       id="path2985-48"
       inkscape:connector-curvature="0" />
    <path
       sodipodi:type="arc"
       style="fill:#40aa00;fill-opacity:1;fill-rule:evenodd;stroke:none"
       id="path2985-1"
       sodipodi:cx="374.28571"
       sodipodi:cy="541.64789"
       sodipodi:rx="214.28572"
       sodipodi:ry="77.85714"
       d="m 588.57143,541.64789 c 0,42.99931 -95.93899,77.85714 -214.28572,77.85714 -118.34674,0 -214.28573,-34.85783 -214.28573,-77.85714 0,-42.99931 95.93899,-77.85714 214.28573,-77.85714 118.34673,0 214.28572,34.85783 214.28572,77.85714 z"
       transform="matrix(0.71399997,0,0,1.7326215,-73.679975,-197.60581)" />
    <path
       sodipodi:type="arc"
       style="fill:#40aa00;fill-opacity:1;fill-rule:evenodd;stroke:none"
       id="path2985-4"
       sodipodi:cx="374.28571"
       sodipodi:cy="541.64789"
       sodipodi:rx="214.28572"
       sodipodi:ry="77.85714"
       d="m 588.57143,541.64789 c 0,42.99931 -95.93899,77.85714 -214.28572,77.85714 -118.34674,0 -214.28573,-34.85783 -214.28573,-77.85714 0,-42.99931 95.93899,-77.85714 214.28573,-77.85714 118.34673,0 214.28572,34.85783 214.28572,77.85714 z"
       transform="matrix(0.46697778,0,0,1.0256992,21.550241,56.652376)" />
    <path
       sodipodi:type="arc"
       style="fill:#000000;fill-opacity:1;fill-rule:evenodd;stroke:none"
       id="path3787"
       sodipodi:cx="91.428574"
       sodipodi:cy="412.82825"
       sodipodi:rx="10"
       sodipodi:ry="16.18034"
       d="m 101.42857,412.82825 a 10,16.18034 0 1 1 -19.999996,0 10,16.18034 0 1 1 19.999996,0 z"
       transform="matrix(2.5883703,0,0,2.2703965,56.754763,-32.64292)" />
    <path
       style="fill:#ffffff;fill-opacity:0.37037036;fill-rule:evenodd;stroke:none"
       d="m 113.03022,660.92685 c -19.278229,7.85471 -34.099987,23.13135 -39.761454,43.87999 -5.424211,19.8791 -1.405536,41.08105 9.448544,59.53103 -6.141837,-17.72232 -7.27156,-37.39281 -2.078131,-56.42617 5.515117,-20.21226 17.262103,-36.39049 32.391041,-46.98485 z"
       id="path2985-48-2"
       inkscape:connector-curvature="0" />
    <path
       style="fill:#ffffff;fill-opacity:0.37037036;fill-rule:evenodd;stroke:none"
       d="m 161.43668,558.37126 c -14.75628,1.27204 -27.64726,8.71738 -35.05104,21.95583 -7.08759,12.67308 -7.81784,28.31306 -3.325,43.53148 -1.33139,-13.68762 1.16551,-27.62607 7.9523,-39.76128 7.21687,-12.90425 18.09636,-21.64085 30.42374,-25.72603 z"
       id="path2985-48-2-5"
       inkscape:connector-curvature="0" />
  </g>
</svg>
